<svg width="1500" height="219" viewBox="0 0 1500 219" fill="none" xmlns="http://www.w3.org/2000/svg">
<g clip-path="url(#clip0_304_3022)">
<path d="M-4.22914 216.106C-6.16837 216.548 -8.48126 216.542 -10.0489 215.044C-13.8293 211.43 -11.4246 206.009 -12.4871 201.371C-13.393 197.406 -18.1106 192.977 -16.758 188.841C-15.9564 186.394 -13.6936 185.025 -11.4642 184.516C-8.41655 183.817 -5.33966 185.375 -2.58423 188.075C-1.46954 189.167 1.7994 189.912 4.41497 191.174C7.03053 192.436 9.01987 194.335 9.47911 196.344C10.1179 199.13 9.18478 201.44 7.57953 203.311C5.70083 205.5 2.99968 207.123 2.31917 208.768C0.870488 212.263 -0.674222 215.292 -4.22914 216.106Z" fill="#FFC462" fill-opacity="0.31"/>
<path d="M8.62566 183.696C12.0313 181.073 13.2943 177.004 11.4467 174.607C9.59915 172.21 5.34059 172.392 1.93497 175.015C-1.47065 177.637 -2.73368 181.707 -0.886098 184.104C0.961486 186.501 5.22004 186.318 8.62566 183.696Z" fill="#FFC462" fill-opacity="0.31"/>
<path d="M19.9634 192.476C24.4406 190.965 27.2666 187.362 26.2755 184.428C25.2844 181.495 20.8514 180.342 16.3742 181.853C11.897 183.364 9.07105 186.968 10.0622 189.901C11.0533 192.835 15.4862 193.988 19.9634 192.476Z" fill="#FFC462" fill-opacity="0.31"/>
<path d="M20.6959 214.995C21.316 212.033 18.4075 208.918 14.1997 208.038C9.99181 207.158 6.07793 208.845 5.4578 211.807C4.83768 214.769 7.74612 217.884 11.954 218.764C16.1619 219.644 20.0757 217.957 20.6959 214.995Z" fill="#FFC462" fill-opacity="0.31"/>
<path d="M21.995 206.327C26.684 205.741 30.1735 202.775 29.789 199.702C29.4045 196.63 25.2916 194.614 20.6026 195.201C15.9135 195.787 12.424 198.753 12.8085 201.825C13.193 204.898 17.3059 206.913 21.995 206.327Z" fill="#FFC462" fill-opacity="0.31"/>
<path d="M47.3073 120.372C45.9191 121.795 44.7189 123.769 45.1823 125.889C46.297 130.997 52.1794 131.771 55.5861 135.092C58.496 137.932 59.8236 144.273 64.059 145.268C66.5639 145.861 68.9144 144.642 70.5113 143.007C72.6969 140.768 72.9682 137.333 72.0998 133.573C71.7471 132.054 72.8138 128.881 73.1018 125.989C73.3899 123.097 72.8012 120.414 71.3254 118.974C69.2797 116.977 66.8207 116.57 64.3867 116.965C61.5395 117.426 58.7507 118.884 56.9868 118.609C53.2461 118.023 49.8561 117.762 47.3073 120.372Z" fill="#FFC462" fill-opacity="0.31"/>
<path d="M85.6016 136.533C89.6156 134.994 91.9909 131.456 90.9069 128.631C89.823 125.805 85.6903 124.762 81.6762 126.301C77.6622 127.839 75.2869 131.377 76.3709 134.202C77.4548 137.028 81.5875 138.071 85.6016 136.533Z" fill="#FFC462" fill-opacity="0.31"/>
<path d="M87.2967 120.643C90.9204 117.611 92.2462 113.228 90.2579 110.854C88.2696 108.479 83.7202 109.012 80.0965 112.044C76.4728 115.076 75.147 119.459 77.1353 121.833C79.1236 124.207 83.673 123.674 87.2967 120.643Z" fill="#FFC462" fill-opacity="0.31"/>
<path d="M63.8019 108.859C65.2433 104.811 64.0996 100.706 61.2474 99.6916C58.3952 98.677 54.9146 101.136 53.4732 105.185C52.0318 109.233 53.1754 113.338 56.0276 114.352C58.8798 115.367 62.3604 112.907 63.8019 108.859Z" fill="#FFC462" fill-opacity="0.31"/>
<path d="M78.0909 110.098C81.0352 106.404 81.4578 101.845 79.0349 99.9156C76.6119 97.9863 72.2608 99.4175 69.3165 103.112C66.3722 106.807 65.9496 111.366 68.3725 113.295C70.7955 115.224 75.1466 113.793 78.0909 110.098Z" fill="#FFC462" fill-opacity="0.31"/>
<path d="M151.233 128.699C149.243 128.709 146.989 128.198 145.787 126.404C142.885 122.053 146.413 117.286 146.392 112.53C146.371 108.466 142.737 103.11 144.958 99.3686C146.273 97.1568 148.782 96.3139 151.068 96.3014C154.199 96.2847 156.858 98.4776 158.958 101.714C159.808 103.022 162.833 104.462 165.114 106.265C167.396 108.067 168.916 110.352 168.926 112.416C168.941 115.272 167.525 117.323 165.551 118.798C163.24 120.524 160.251 121.511 159.226 122.971C157.05 126.062 154.88 128.68 151.233 128.699Z" fill="#FFC462" fill-opacity="0.31"/>
<path d="M170.852 99.8612C174.748 98.0444 176.869 94.3486 175.589 91.6062C174.309 88.8639 170.113 88.1135 166.217 89.9302C162.321 91.747 160.201 95.4428 161.481 98.1852C162.761 100.928 166.956 101.678 170.852 99.8612Z" fill="#FFC462" fill-opacity="0.31"/>
<path d="M180.01 110.908C184.709 110.409 188.254 107.509 187.927 104.43C187.6 101.351 183.525 99.2591 178.826 99.7577C174.127 100.256 170.582 103.157 170.91 106.236C171.237 109.315 175.311 111.407 180.01 110.908Z" fill="#FFC462" fill-opacity="0.31"/>
<path d="M175.793 133.04C177.045 130.284 174.886 126.61 170.972 124.834C167.057 123.057 162.869 123.851 161.618 126.606C160.366 129.362 162.525 133.035 166.439 134.812C170.354 136.588 174.542 135.795 175.793 133.04Z" fill="#FFC462" fill-opacity="0.31"/>
<path d="M188.019 120.123C188.314 117.041 184.741 114.176 180.037 113.725C175.333 113.274 171.28 115.407 170.984 118.489C170.688 121.572 174.262 124.436 178.966 124.887C183.67 125.338 187.723 123.205 188.019 120.123Z" fill="#FFC462" fill-opacity="0.31"/>
<path d="M222.43 46.5107C220.76 47.5978 219.161 49.2629 219.15 51.4329C219.123 56.6596 224.695 58.6982 227.292 62.6834C229.51 66.0886 229.425 72.561 233.345 74.4619C235.662 75.5865 238.221 74.9084 240.136 73.6627C242.757 71.9539 243.772 68.6551 243.745 64.8033C243.732 63.2447 245.467 60.3778 246.379 57.6194C247.291 54.861 247.304 52.1131 246.17 50.3854C244.609 47.9922 242.298 47.0574 239.837 46.9113C236.958 46.7423 233.913 47.554 232.258 46.9113C228.736 45.5155 225.484 44.5223 222.43 46.5107Z" fill="#FFC462" fill-opacity="0.31"/>
<path d="M256.275 70.6245C260.528 69.9983 263.618 67.0636 263.177 64.0699C262.736 61.0761 258.931 59.1568 254.677 59.7831C250.424 60.4093 247.334 63.3439 247.775 66.3377C248.217 69.3315 252.022 71.2508 256.275 70.6245Z" fill="#FFC462" fill-opacity="0.31"/>
<path d="M261.391 55.4839C265.589 53.3153 267.84 49.3273 266.417 46.5766C264.995 43.8258 260.439 43.3539 256.241 45.5226C252.043 47.6912 249.793 51.6792 251.215 54.4299C252.637 57.1807 257.193 57.6526 261.391 55.4839Z" fill="#FFC462" fill-opacity="0.31"/>
<path d="M241.036 38.8675C243.326 35.2308 243.106 30.9759 240.544 29.3639C237.982 27.7518 234.048 29.393 231.758 33.0296C229.468 36.6662 229.688 40.9211 232.25 42.5332C234.812 44.1453 238.746 42.5041 241.036 38.8675Z" fill="#FFC462" fill-opacity="0.31"/>
<path d="M254.719 43.1948C258.398 40.2312 259.806 35.8741 257.862 33.463C255.919 31.0519 251.36 31.4998 247.68 34.4635C244.001 37.4271 242.593 41.7842 244.537 44.1953C246.48 46.6064 251.039 46.1584 254.719 43.1948Z" fill="#FFC462" fill-opacity="0.31"/>
<path d="M318.331 77.7357C316.428 77.1598 314.424 76.0059 313.808 73.9257C312.324 68.918 317.106 65.4001 318.488 60.8494C319.669 56.9622 317.78 50.7714 321.009 47.8524C322.919 46.1268 325.566 46.0642 327.752 46.7278C330.745 47.6354 332.641 50.5148 333.691 54.2288C334.108 55.729 336.58 57.9971 338.225 60.3924C339.869 62.7878 340.65 65.421 340.049 67.3948C339.214 70.1282 337.26 71.6701 334.939 72.4964C332.225 73.4645 329.069 73.5397 327.662 74.6205C324.667 76.9344 321.819 78.7956 318.331 77.7357Z" fill="#FFC462" fill-opacity="0.31"/>
<path d="M345.594 55.9976C349.853 55.4129 352.972 52.5086 352.56 49.5107C352.148 46.5127 348.361 44.5564 344.102 45.1411C339.843 45.7257 336.725 48.63 337.136 51.628C337.548 54.6259 341.335 56.5823 345.594 55.9976Z" fill="#FFC462" fill-opacity="0.31"/>
<path d="M360.569 65.3995C361.167 62.3614 357.893 59.1593 353.256 58.2475C348.62 57.3357 344.376 59.0594 343.778 62.0976C343.18 65.1357 346.454 68.3378 351.091 69.2496C355.727 70.1614 359.971 68.4377 360.569 65.3995Z" fill="#FFC462" fill-opacity="0.31"/>
<path d="M340.512 89.1524C342.523 86.8899 341.547 82.7424 338.333 79.8889C335.118 77.0353 330.883 76.5563 328.873 78.8188C326.862 81.0814 327.838 85.2288 331.052 88.0823C334.267 90.9359 338.502 91.415 340.512 89.1524Z" fill="#FFC462" fill-opacity="0.31"/>
<path d="M355.988 80.387C357.182 77.5297 354.614 73.7381 350.253 71.9183C345.892 70.0985 341.39 70.9396 340.196 73.797C339.003 76.6543 341.57 80.4459 345.931 82.2657C350.292 84.0855 354.795 83.2444 355.988 80.387Z" fill="#FFC462" fill-opacity="0.31"/>
<path d="M410.642 20.2394C408.727 20.7861 406.705 21.9086 406.049 23.9722C404.477 28.959 409.199 32.552 410.504 37.1278C411.618 41.0358 409.623 47.1932 412.8 50.1644C414.679 51.9233 417.325 52.0423 419.524 51.4163C422.532 50.5608 424.475 47.7148 425.59 44.0196C426.038 42.5256 428.541 40.3014 430.23 37.9332C431.919 35.565 432.735 32.9484 432.173 30.9642C431.391 28.2162 429.46 26.6409 427.151 25.775C424.45 24.763 421.306 24.6399 419.912 23.5278C416.962 21.1575 414.148 19.2483 410.642 20.2394Z" fill="#FFC462" fill-opacity="0.31"/>
<path d="M444.404 49.0674C444.867 46.077 441.799 43.1193 437.551 42.4611C433.303 41.803 429.483 43.6937 429.019 46.6841C428.556 49.6744 431.624 52.6322 435.872 53.2903C440.12 53.9484 443.94 52.0578 444.404 49.0674Z" fill="#FFC462" fill-opacity="0.31"/>
<path d="M445.212 40.3495C449.864 39.5179 453.193 36.3729 452.647 33.3248C452.102 30.2768 447.889 28.4801 443.237 29.3116C438.585 30.1432 435.257 33.2883 435.802 36.3363C436.347 39.3843 440.56 41.1811 445.212 40.3495Z" fill="#FFC462" fill-opacity="0.31"/>
<path d="M430.692 18.4599C433.956 15.6623 435.003 11.5324 433.032 9.23545C431.061 6.93851 426.818 7.34439 423.555 10.142C420.292 12.9396 419.244 17.0696 421.215 19.3665C423.186 21.6634 427.429 21.2575 430.692 18.4599Z" fill="#FFC462" fill-opacity="0.31"/>
<path d="M442.457 26.5728C446.848 24.8278 449.48 21.0807 448.336 18.2033C447.191 15.326 442.704 14.408 438.312 16.1529C433.921 17.8979 431.289 21.6451 432.433 24.5224C433.578 27.3998 438.065 28.3177 442.457 26.5728Z" fill="#FFC462" fill-opacity="0.31"/>
<path d="M853.397 186.118C851.494 185.54 849.492 184.386 848.876 182.306C847.39 177.298 852.172 173.783 853.556 169.23C854.737 165.343 852.846 159.152 856.075 156.233C857.985 154.507 860.632 154.445 862.82 155.108C865.813 156.018 867.707 158.895 868.757 162.62C869.174 164.12 871.646 166.388 873.293 168.783C874.94 171.179 875.716 173.812 875.117 175.786C874.282 178.519 872.328 180.063 870.005 180.887C867.291 181.855 864.137 181.93 862.728 183.011C859.726 185.319 856.888 187.18 853.397 186.118Z" fill="#FFC462" fill-opacity="0.31"/>
<path d="M880.66 164.388C884.919 163.804 888.038 160.899 887.626 157.901C887.214 154.903 883.428 152.947 879.169 153.532C874.91 154.116 871.791 157.021 872.203 160.019C872.615 163.017 876.401 164.973 880.66 164.388Z" fill="#FFC462" fill-opacity="0.31"/>
<path d="M895.656 173.793C896.254 170.755 892.98 167.553 888.343 166.641C883.707 165.729 879.463 167.453 878.865 170.491C878.267 173.529 881.541 176.731 886.178 177.643C890.815 178.555 895.058 176.831 895.656 173.793Z" fill="#FFC462" fill-opacity="0.31"/>
<path d="M875.581 197.543C877.591 195.28 876.615 191.133 873.401 188.28C870.187 185.426 865.951 184.947 863.941 187.209C861.931 189.472 862.906 193.619 866.121 196.473C869.335 199.326 873.57 199.806 875.581 197.543Z" fill="#FFC462" fill-opacity="0.31"/>
<path d="M891.043 188.762C892.236 185.904 889.669 182.113 885.308 180.293C880.947 178.473 876.444 179.314 875.251 182.172C874.057 185.029 876.625 188.82 880.986 190.64C885.347 192.46 889.849 191.619 891.043 188.762Z" fill="#FFC462" fill-opacity="0.31"/>
<path d="M945.708 128.632C943.796 129.177 941.773 130.302 941.116 132.363C939.546 137.35 944.266 140.943 945.571 145.508C946.685 149.416 944.69 155.574 947.867 158.547C949.745 160.304 952.392 160.425 954.59 159.799C957.6 158.941 959.544 156.095 960.656 152.4C961.107 150.908 963.61 148.682 965.297 146.314C966.983 143.945 967.802 141.329 967.242 139.345C966.459 136.597 964.529 135.021 962.22 134.155C959.519 133.144 956.375 133.02 954.981 131.908C952.029 129.542 949.215 127.633 945.708 128.632Z" fill="#FFC462" fill-opacity="0.31"/>
<path d="M976.671 155.167C977.125 152.171 974.043 149.22 969.787 148.576C965.531 147.931 961.713 149.837 961.259 152.833C960.805 155.829 963.887 158.78 968.143 159.424C972.399 160.069 976.217 158.163 976.671 155.167Z" fill="#FFC462" fill-opacity="0.31"/>
<path d="M980.28 148.745C984.931 147.913 988.26 144.768 987.715 141.72C987.169 138.672 982.956 136.876 978.305 137.707C973.653 138.539 970.324 141.684 970.869 144.732C971.415 147.78 975.628 149.577 980.28 148.745Z" fill="#FFC462" fill-opacity="0.31"/>
<path d="M965.78 126.875C969.043 124.077 970.09 119.947 968.119 117.65C966.148 115.354 961.905 115.759 958.642 118.557C955.379 121.355 954.331 125.485 956.302 127.782C958.273 130.078 962.516 129.673 965.78 126.875Z" fill="#FFC462" fill-opacity="0.31"/>
<path d="M977.516 134.916C981.907 133.171 984.54 129.423 983.395 126.546C982.251 123.669 977.763 122.751 973.372 124.496C968.981 126.241 966.349 129.988 967.493 132.865C968.637 135.743 973.125 136.661 977.516 134.916Z" fill="#FFC462" fill-opacity="0.31"/>
<path d="M1042.96 185.075C1040.99 184.783 1038.84 183.938 1037.93 181.97C1035.72 177.229 1039.94 173.054 1040.64 168.349C1041.24 164.328 1038.46 158.482 1041.23 155.123C1042.86 153.136 1045.47 152.684 1047.73 153.019C1050.82 153.479 1053.12 156.047 1054.71 159.567C1055.35 160.988 1058.12 162.87 1060.1 164.992C1062.08 167.114 1063.23 169.609 1062.93 171.65C1062.52 174.475 1060.8 176.288 1058.63 177.446C1056.08 178.803 1052.97 179.324 1051.74 180.616C1049.11 183.341 1046.57 185.601 1042.96 185.075Z" fill="#FFC462" fill-opacity="0.31"/>
<path d="M1066.76 159.756C1070.89 158.552 1073.55 155.222 1072.7 152.317C1071.85 149.412 1067.82 148.032 1063.69 149.235C1059.56 150.439 1056.9 153.769 1057.75 156.674C1058.6 159.579 1062.63 160.959 1066.76 159.756Z" fill="#FFC462" fill-opacity="0.31"/>
<path d="M1082.95 166.664C1083.1 163.571 1079.39 160.884 1074.67 160.664C1069.95 160.443 1066 162.771 1065.86 165.864C1065.71 168.957 1069.42 171.643 1074.14 171.864C1078.86 172.085 1082.81 169.757 1082.95 166.664Z" fill="#FFC462" fill-opacity="0.31"/>
<path d="M1066.58 193.101C1068.24 190.567 1066.66 186.608 1063.06 184.258C1059.46 181.907 1055.2 182.056 1053.55 184.589C1051.89 187.122 1053.47 191.081 1057.07 193.432C1060.66 195.782 1064.92 195.634 1066.58 193.101Z" fill="#FFC462" fill-opacity="0.31"/>
<path d="M1080.58 182.147C1081.34 179.146 1078.24 175.772 1073.66 174.613C1069.08 173.453 1064.75 174.947 1063.99 177.948C1063.23 180.95 1066.33 184.323 1070.91 185.483C1075.49 186.642 1079.82 185.149 1080.58 182.147Z" fill="#FFC462" fill-opacity="0.31"/>
<path d="M1125.82 114.64C1124.01 115.46 1122.17 116.864 1121.83 119.005C1121.01 124.169 1126.21 127.03 1128.17 131.363C1129.84 135.065 1128.78 141.45 1132.36 143.922C1134.47 145.383 1137.11 145.105 1139.19 144.162C1142.04 142.873 1143.54 139.781 1144.1 135.954C1144.33 134.412 1146.48 131.843 1147.8 129.254C1149.12 126.665 1149.55 123.952 1148.7 122.074C1147.52 119.47 1145.38 118.195 1142.97 117.678C1140.15 117.073 1137.01 117.415 1135.47 116.518C1132.2 114.613 1129.14 113.138 1125.82 114.64Z" fill="#FFC462" fill-opacity="0.31"/>
<path d="M1163.49 138.196C1163.51 135.17 1160.04 132.695 1155.74 132.668C1151.44 132.641 1147.94 135.072 1147.92 138.098C1147.9 141.124 1151.37 143.599 1155.67 143.626C1159.97 143.653 1163.47 141.222 1163.49 138.196Z" fill="#FFC462" fill-opacity="0.31"/>
<path d="M1162.97 129.46C1167.45 127.955 1170.28 124.355 1169.29 121.42C1168.31 118.485 1163.87 117.327 1159.4 118.833C1154.92 120.338 1152.09 123.938 1153.07 126.873C1154.06 129.808 1158.49 130.966 1162.97 129.46Z" fill="#FFC462" fill-opacity="0.31"/>
<path d="M1145.42 109.962C1148.24 106.715 1148.67 102.477 1146.38 100.494C1144.09 98.5115 1139.96 99.5362 1137.14 102.783C1134.32 106.029 1133.89 110.268 1136.18 112.251C1138.47 114.233 1142.61 113.209 1145.42 109.962Z" fill="#FFC462" fill-opacity="0.31"/>
<path d="M1158.19 116.168C1162.28 113.797 1164.33 109.704 1162.78 107.026C1161.22 104.348 1156.65 104.099 1152.56 106.47C1148.48 108.841 1146.42 112.934 1147.98 115.612C1149.53 118.29 1154.11 118.539 1158.19 116.168Z" fill="#FFC462" fill-opacity="0.31"/>
<path d="M1229.24 157.821C1227.25 157.746 1225.02 157.143 1223.9 155.288C1221.18 150.82 1224.91 146.205 1225.08 141.452C1225.23 137.389 1221.83 131.887 1224.2 128.242C1225.61 126.087 1228.15 125.35 1230.44 125.434C1233.57 125.55 1236.13 127.85 1238.09 131.174C1238.89 132.515 1241.85 134.08 1244.05 135.973C1246.25 137.865 1247.68 140.217 1247.6 142.278C1247.49 145.135 1246 147.123 1243.96 148.515C1241.58 150.142 1238.55 151.019 1237.46 152.423C1235.16 155.429 1232.88 157.95 1229.24 157.821Z" fill="#FFC462" fill-opacity="0.31"/>
<path d="M1250.04 129.813C1254.01 128.162 1256.29 124.559 1255.12 121.765C1253.96 118.971 1249.8 118.045 1245.83 119.696C1241.86 121.348 1239.59 124.951 1240.75 127.745C1241.91 130.539 1246.08 131.465 1250.04 129.813Z" fill="#FFC462" fill-opacity="0.31"/>
<path d="M1258.73 141.256C1263.45 140.955 1267.11 138.206 1266.92 135.116C1266.72 132.026 1262.74 129.765 1258.02 130.065C1253.3 130.366 1249.64 133.115 1249.84 136.205C1250.04 139.295 1254.02 141.556 1258.73 141.256Z" fill="#FFC462" fill-opacity="0.31"/>
<path d="M1253.56 163.178C1254.93 160.478 1252.93 156.716 1249.09 154.777C1245.26 152.837 1241.04 153.454 1239.67 156.155C1238.3 158.855 1240.31 162.616 1244.14 164.556C1247.98 166.495 1252.2 165.878 1253.56 163.178Z" fill="#FFC462" fill-opacity="0.31"/>
<path d="M1266.26 150.763C1266.69 147.696 1263.24 144.684 1258.55 144.037C1253.87 143.389 1249.73 145.35 1249.31 148.418C1248.89 151.485 1252.34 154.496 1257.02 155.144C1261.7 155.791 1265.84 153.83 1266.26 150.763Z" fill="#FFC462" fill-opacity="0.31"/>
<path d="M1303.83 78.6953C1302.12 79.7115 1300.45 81.3077 1300.34 83.4735C1300.1 88.6898 1305.58 90.9683 1308.01 95.0579C1310.08 98.5528 1309.72 105.015 1313.56 107.078C1315.82 108.301 1318.41 107.731 1320.37 106.565C1323.06 104.969 1324.22 101.722 1324.35 97.8664C1324.4 96.3077 1326.26 93.5181 1327.28 90.7993C1328.31 88.0806 1328.44 85.3368 1327.39 83.5632C1325.93 81.1074 1323.66 80.0745 1321.21 79.8262C1318.34 79.5362 1315.26 80.2206 1313.63 79.4987C1310.17 77.9651 1306.96 76.8362 1303.83 78.6953Z" fill="#FFC462" fill-opacity="0.31"/>
<path d="M1336.63 104.237C1340.91 103.79 1344.12 100.988 1343.8 97.9785C1343.49 94.9688 1339.77 92.8913 1335.49 93.3382C1331.22 93.7851 1328.01 96.5873 1328.32 99.597C1328.64 102.607 1332.36 104.684 1336.63 104.237Z" fill="#FFC462" fill-opacity="0.31"/>
<path d="M1342.37 89.2895C1346.66 87.2992 1349.07 83.4094 1347.77 80.6013C1346.46 77.7932 1341.93 77.1302 1337.65 79.1204C1333.36 81.1107 1330.94 85.0005 1332.25 87.8086C1333.56 90.6167 1338.09 91.2798 1342.37 89.2895Z" fill="#FFC462" fill-opacity="0.31"/>
<path d="M1322.77 71.8591C1325.21 68.322 1325.17 64.0617 1322.67 62.3433C1320.18 60.625 1316.18 62.0993 1313.74 65.6365C1311.3 69.1736 1311.34 73.434 1313.83 75.1524C1316.33 76.8707 1320.33 75.3963 1322.77 71.8591Z" fill="#FFC462" fill-opacity="0.31"/>
<path d="M1336.26 76.7936C1340.06 73.9872 1341.65 69.6932 1339.81 67.2026C1337.97 64.7119 1333.4 64.9678 1329.6 67.7741C1325.8 70.5805 1324.21 74.8746 1326.05 77.3652C1327.89 79.8559 1332.46 79.5999 1336.26 76.7936Z" fill="#FFC462" fill-opacity="0.31"/>
<path d="M1416.4 113.887C1414.45 114.248 1412.14 114.145 1410.63 112.583C1407 108.816 1409.63 103.498 1408.75 98.8115C1408.01 94.8158 1403.49 90.19 1405.01 86.1129C1405.91 83.7029 1408.23 82.4281 1410.48 82.0108C1413.55 81.4411 1416.56 83.125 1419.2 85.9397C1420.27 87.0748 1423.5 87.9553 1426.07 89.3241C1428.63 90.6928 1430.53 92.6729 1430.91 94.701C1431.43 97.5095 1430.4 99.7796 1428.72 101.587C1426.75 103.696 1423.99 105.205 1423.24 106.82C1421.67 110.258 1420 113.221 1416.4 113.887Z" fill="#FFC462" fill-opacity="0.31"/>
<path d="M1430.55 81.9771C1434.06 79.4983 1435.5 75.4849 1433.75 73.0131C1432 70.5413 1427.74 70.5469 1424.23 73.0258C1420.72 75.5046 1419.29 79.518 1421.03 81.9898C1422.78 84.4617 1427.04 84.456 1430.55 81.9771Z" fill="#FFC462" fill-opacity="0.31"/>
<path d="M1441.55 91.2574C1446.09 89.9333 1449.06 86.4504 1448.19 83.4781C1447.33 80.5059 1442.94 79.1698 1438.41 80.494C1433.87 81.8182 1430.9 85.3011 1431.77 88.2733C1432.64 91.2455 1437.02 92.5816 1441.55 91.2574Z" fill="#FFC462" fill-opacity="0.31"/>
<path d="M1441.27 113.787C1442.01 110.853 1439.23 107.62 1435.07 106.566C1430.9 105.512 1426.92 107.036 1426.18 109.969C1425.43 112.903 1428.21 116.136 1432.38 117.19C1436.54 118.244 1440.53 116.72 1441.27 113.787Z" fill="#FFC462" fill-opacity="0.31"/>
<path d="M1447.72 109.543C1452.44 109.165 1456.07 106.349 1455.82 103.252C1455.58 100.156 1451.54 97.9521 1446.82 98.3299C1442.09 98.7078 1438.46 101.524 1438.71 104.621C1438.96 107.717 1442.99 109.921 1447.72 109.543Z" fill="#FFC462" fill-opacity="0.31"/>
<path d="M1471.88 20.377C1470.43 21.7395 1469.15 23.6633 1469.52 25.802C1470.42 30.9515 1476.27 31.9697 1479.54 35.4313C1482.33 38.3879 1483.4 44.7727 1487.59 45.9495C1490.07 46.6443 1492.46 45.5322 1494.13 43.9569C1496.4 41.8119 1496.82 38.3921 1496.1 34.5988C1495.82 33.0673 1497.01 29.9396 1497.42 27.0622C1497.83 24.1849 1497.35 21.4808 1495.94 19.9785C1493.98 17.8919 1491.54 17.3912 1489.09 17.6833C1486.23 18.0276 1483.37 19.3671 1481.63 19.0187C1477.91 18.2758 1474.53 17.8752 1471.88 20.377Z" fill="#FFC462" fill-opacity="0.31"/>
<path d="M1509.47 38.1026C1513.54 36.732 1516.06 33.2959 1515.1 30.4279C1514.13 27.5598 1510.04 26.3459 1505.97 27.7165C1501.89 29.0871 1499.37 32.5232 1500.34 35.3913C1501.31 38.2593 1505.39 39.4732 1509.47 38.1026Z" fill="#FFC462" fill-opacity="0.31"/>
<path d="M1511.79 22.2649C1515.53 19.3861 1517.04 15.0623 1515.15 12.6074C1513.27 10.1526 1508.7 10.4962 1504.95 13.375C1501.2 16.2537 1499.7 20.5775 1501.59 23.0324C1503.47 25.4872 1508.04 25.1437 1511.79 22.2649Z" fill="#FFC462" fill-opacity="0.31"/>
<path d="M1488.83 9.5526C1490.44 5.56752 1489.47 1.4192 1486.66 0.28707C1483.85 -0.845054 1480.27 1.46773 1478.67 5.45282C1477.06 9.4379 1478.03 13.5862 1480.84 14.7184C1483.64 15.8505 1487.22 13.5377 1488.83 9.5526Z" fill="#FFC462" fill-opacity="0.31"/>
<path d="M1503.1 11.4122C1506.19 7.84298 1506.8 3.30547 1504.46 1.27732C1502.12 -0.750826 1497.72 0.498409 1494.62 4.06762C1491.53 7.63682 1490.91 12.1744 1493.25 14.2026C1495.6 16.2307 1500 14.9814 1503.1 11.4122Z" fill="#FFC462" fill-opacity="0.31"/>
<path d="M494.321 78.7497C492.678 77.6272 491.115 75.9266 491.15 73.7587C491.236 68.532 496.849 66.6124 499.533 62.6855C501.829 59.3283 501.877 52.8559 505.833 51.0406C508.173 49.9661 510.718 50.6963 512.605 51.9858C515.187 53.7489 516.133 57.0623 516.022 60.9203C515.976 62.479 517.648 65.3813 518.5 68.1585C519.351 70.9357 519.305 73.6815 518.143 75.3862C516.531 77.7461 514.202 78.6308 511.736 78.7247C508.854 78.8332 505.827 77.9548 504.157 78.5724C500.606 79.8806 497.333 80.805 494.321 78.7497Z" fill="#FFC462" fill-opacity="0.31"/>
<path d="M535.433 62.0627C535.938 59.079 532.912 56.0788 528.673 55.3614C524.434 54.6441 520.588 56.4812 520.083 59.4649C519.578 62.4485 522.604 65.4487 526.843 66.1661C531.082 66.8835 534.927 65.0463 535.433 62.0627Z" fill="#FFC462" fill-opacity="0.31"/>
<path d="M538.312 79.6206C539.793 76.901 537.628 72.8657 533.478 70.6075C529.327 68.3493 524.762 68.7233 523.281 71.4429C521.8 74.1625 523.964 78.1978 528.115 80.456C532.265 82.7143 536.831 82.3403 538.312 79.6206Z" fill="#FFC462" fill-opacity="0.31"/>
<path d="M512.061 96.2711C514.657 94.7144 514.969 90.4652 512.757 86.7803C510.546 83.0954 506.648 81.3701 504.052 82.9269C501.456 84.4836 501.144 88.7328 503.356 92.4177C505.568 96.1026 509.465 97.8279 512.061 96.2711Z" fill="#FFC462" fill-opacity="0.31"/>
<path d="M529.444 92.538C531.439 90.1692 530.126 85.7829 526.511 82.741C522.895 79.6991 518.347 79.1535 516.352 81.5223C514.357 83.8912 515.671 88.2775 519.286 91.3194C522.902 94.3613 527.449 94.9069 529.444 92.538Z" fill="#FFC462" fill-opacity="0.31"/>
<path d="M599.63 51.537C597.643 51.4849 595.378 51.9543 594.136 53.7258C591.143 58.0115 594.57 62.8544 594.443 67.6096C594.334 71.672 590.585 76.9489 592.727 80.7359C593.994 82.9769 596.485 83.8657 598.781 83.9346C601.912 84.018 604.615 81.8835 606.784 78.6911C607.661 77.4016 610.717 76.0287 613.046 74.276C615.376 72.5233 616.935 70.2699 616.99 68.2084C617.067 65.3519 615.695 63.2717 613.754 61.7527C611.479 59.9791 608.512 58.9192 607.521 57.4419C605.381 54.3017 603.269 51.6372 599.63 51.537Z" fill="#FFC462" fill-opacity="0.31"/>
<path d="M623.193 89.1443C624.532 86.43 622.491 82.6895 618.635 80.7896C614.779 78.8897 610.568 79.5499 609.229 82.2641C607.891 84.9784 609.932 88.7189 613.788 90.6188C617.644 92.5187 621.855 91.8585 623.193 89.1443Z" fill="#FFC462" fill-opacity="0.31"/>
<path d="M635.783 76.5849C636.176 73.5135 632.695 70.5379 628.007 69.9385C623.32 69.3391 619.201 71.343 618.808 74.4144C618.415 77.4857 621.897 80.4615 626.584 81.0608C631.271 81.6602 635.39 79.6563 635.783 76.5849Z" fill="#FFC462" fill-opacity="0.31"/>
<path d="M619.291 55.8368C623.242 54.1447 625.479 50.518 624.287 47.7364C623.095 44.9548 618.925 44.0716 614.973 45.7638C611.022 47.4559 608.785 51.0826 609.977 53.8642C611.169 56.6458 615.339 57.5289 619.291 55.8368Z" fill="#FFC462" fill-opacity="0.31"/>
<path d="M628.081 67.1813C632.794 66.8321 636.429 64.0457 636.2 60.9578C635.971 57.8699 631.964 55.6498 627.252 55.999C622.539 56.3482 618.904 59.1346 619.133 62.2225C619.362 65.3104 623.369 67.5306 628.081 67.1813Z" fill="#FFC462" fill-opacity="0.31"/>
<path d="M670.291 140.19C668.579 139.176 666.909 137.577 666.807 135.411C666.559 130.195 672.04 127.917 674.468 123.825C676.541 120.33 676.182 113.868 680.012 111.802C682.279 110.582 684.863 111.149 686.83 112.316C689.521 113.91 690.675 117.159 690.811 121.014C690.865 122.571 692.719 125.361 693.746 128.081C694.773 130.802 694.902 133.542 693.85 135.315C692.389 137.773 690.122 138.804 687.669 139.055C684.799 139.345 681.724 138.662 680.096 139.384C676.635 140.918 673.428 142.049 670.291 140.19Z" fill="#FFC462" fill-opacity="0.31"/>
<path d="M710.297 120.93C710.612 117.92 707.4 115.119 703.124 114.672C698.849 114.226 695.128 116.304 694.813 119.314C694.499 122.324 697.71 125.125 701.986 125.572C706.262 126.018 709.983 123.94 710.297 120.93Z" fill="#FFC462" fill-opacity="0.31"/>
<path d="M714.289 138.288C715.593 135.48 713.177 131.59 708.891 129.601C704.605 127.611 700.072 128.275 698.768 131.083C697.463 133.892 699.88 137.781 704.166 139.771C708.452 141.76 712.984 141.097 714.289 138.288Z" fill="#FFC462" fill-opacity="0.31"/>
<path d="M687.312 154.693C689.795 152.968 689.821 148.713 687.37 145.189C684.92 141.666 680.921 140.208 678.438 141.933C675.956 143.657 675.93 147.912 678.38 151.436C680.831 154.959 684.83 156.418 687.312 154.693Z" fill="#FFC462" fill-opacity="0.31"/>
<path d="M706.246 151.742C708.086 149.251 706.496 144.957 702.694 142.151C698.893 139.346 694.319 139.091 692.479 141.581C690.639 144.072 692.229 148.366 696.031 151.172C699.833 153.978 704.406 154.233 706.246 151.742Z" fill="#FFC462" fill-opacity="0.31"/>
<path d="M773.645 106.328C771.655 106.403 769.426 107.008 768.299 108.861C765.585 113.33 769.313 117.943 769.491 122.696C769.641 126.759 766.236 132.263 768.614 135.906C770.021 138.061 772.565 138.798 774.849 138.712C777.98 138.598 780.542 136.296 782.504 132.972C783.295 131.629 786.261 130.064 788.459 128.173C790.657 126.283 792.087 123.927 792.008 121.866C791.901 119.012 790.401 117.021 788.365 115.631C785.984 114.004 782.955 113.128 781.869 111.725C779.569 108.708 777.287 106.192 773.645 106.328Z" fill="#FFC462" fill-opacity="0.31"/>
<path d="M799.489 142.309C800.652 139.514 798.376 135.912 794.407 134.262C790.437 132.612 786.277 133.539 785.115 136.333C783.952 139.127 786.228 142.73 790.197 144.38C794.167 146.03 798.327 145.103 799.489 142.309Z" fill="#FFC462" fill-opacity="0.31"/>
<path d="M811.38 129.03C811.576 125.94 807.913 123.192 803.197 122.892C798.481 122.592 794.498 124.854 794.301 127.944C794.105 131.034 797.768 133.782 802.484 134.082C807.2 134.382 811.183 132.12 811.38 129.03Z" fill="#FFC462" fill-opacity="0.31"/>
<path d="M793.516 109.288C797.351 107.347 799.352 103.585 797.985 100.885C796.617 98.1852 792.399 97.5699 788.564 99.5107C784.728 101.452 782.728 105.214 784.095 107.913C785.462 110.613 789.68 111.229 793.516 109.288Z" fill="#FFC462" fill-opacity="0.31"/>
<path d="M803.04 120.049C807.72 119.4 811.17 116.387 810.744 113.32C810.318 110.253 806.178 108.293 801.498 108.942C796.817 109.591 793.368 112.604 793.793 115.671C794.219 118.738 798.359 120.698 803.04 120.049Z" fill="#FFC462" fill-opacity="0.31"/>
</g>
<defs>
<clipPath id="clip0_304_3022">
<rect width="1533" height="219" fill="white" transform="translate(-17)"/>
</clipPath>
</defs>
</svg>
