<svg width="340" height="399" viewBox="0 0 340 399" fill="none" xmlns="http://www.w3.org/2000/svg">
<g clip-path="url(#clip0_304_3116)">
<path d="M52.7807 395.091C52.5184 395.626 52.0811 396.164 51.4365 396.247C49.8818 396.448 49.0713 394.866 47.7899 394.239C46.695 393.703 44.7735 393.968 44.0644 392.874C43.6449 392.226 43.7522 391.44 44.0537 390.825C44.465 389.983 45.4081 389.559 46.5567 389.426C47.0211 389.371 47.8107 388.75 48.5979 388.378C49.385 388.006 50.2024 387.9 50.7573 388.172C51.527 388.548 51.8896 389.2 52.0234 389.927C52.1796 390.778 52.049 391.713 52.3041 392.182C52.8458 393.178 53.2609 394.109 52.7807 395.091Z" fill="#FFC462"/>
<path d="M47.648 385.987C47.6784 384.699 46.9679 383.638 46.0609 383.617C45.154 383.596 44.3941 384.623 44.3637 385.911C44.3333 387.199 45.0438 388.26 45.9508 388.282C46.8577 388.303 47.6176 387.275 47.648 385.987Z" fill="#FFC462"/>
<path d="M51.8315 384.999C52.3228 383.67 52.0154 382.333 51.1448 382.011C50.2742 381.689 49.1701 382.505 48.6787 383.834C48.1874 385.162 48.4948 386.5 49.3654 386.822C50.236 387.143 51.3401 386.327 51.8315 384.999Z" fill="#FFC462"/>
<path d="M57.2184 389.071C56.6448 388.369 55.3707 388.46 54.3727 389.275C53.3746 390.09 53.0304 391.32 53.604 392.023C54.1776 392.726 55.4517 392.634 56.4498 391.819C57.4478 391.004 57.792 389.774 57.2184 389.071Z" fill="#FFC462"/>
<path d="M55.4427 387.135C56.1896 385.932 56.1558 384.56 55.3671 384.07C54.5785 383.581 53.3337 384.16 52.5868 385.363C51.8399 386.567 51.8737 387.939 52.6623 388.428C53.451 388.918 54.6958 388.339 55.4427 387.135Z" fill="#FFC462"/>
<path d="M40.176 365.038C40.2461 365.63 40.4801 366.282 41.0616 366.573C42.4623 367.276 43.7511 366.05 45.1674 365.882C46.3777 365.739 48.1059 366.624 49.136 365.824C49.7462 365.352 49.905 364.575 49.8246 363.894C49.7146 362.963 48.9651 362.253 47.925 361.746C47.5045 361.542 46.9657 360.696 46.3459 360.084C45.726 359.472 44.9896 359.103 44.3759 359.176C43.525 359.277 42.9668 359.773 42.6001 360.415C42.1711 361.165 41.9855 362.09 41.589 362.45C40.7474 363.211 40.0478 363.952 40.176 365.038Z" fill="#FFC462"/>
<path d="M51.1594 359.157C51.5571 357.931 51.18 356.711 50.3171 356.431C49.4543 356.152 48.4323 356.918 48.0346 358.144C47.6369 359.369 48.014 360.59 48.8768 360.87C49.7397 361.149 50.7616 360.383 51.1594 359.157Z" fill="#FFC462"/>
<path d="M47.7749 355.768C47.751 354.352 46.9792 353.217 46.0511 353.233C45.1229 353.249 44.3899 354.41 44.4138 355.826C44.4377 357.242 45.2094 358.377 46.1376 358.361C47.0657 358.345 47.7988 357.184 47.7749 355.768Z" fill="#FFC462"/>
<path d="M40.6005 359.024C39.9284 357.925 38.7561 357.418 37.9822 357.892C37.2082 358.365 37.1256 359.64 37.7977 360.739C38.4698 361.838 39.6421 362.345 40.416 361.871C41.19 361.397 41.2726 360.123 40.6005 359.024Z" fill="#FFC462"/>
<path d="M43.5826 355.927C43.2762 354.544 42.2931 353.586 41.3868 353.788C40.4805 353.989 39.9942 355.273 40.3007 356.655C40.6071 358.038 41.5902 358.996 42.4964 358.794C43.4027 358.593 43.889 357.309 43.5826 355.927Z" fill="#FFC462"/>
<path d="M61.7008 342.382C61.3284 342.847 60.7844 343.277 60.1396 343.219C58.5788 343.075 58.1321 341.355 57.0197 340.464C56.0684 339.702 54.135 339.54 53.6815 338.318C53.4137 337.594 53.69 336.851 54.1178 336.315C54.7039 335.582 55.7162 335.376 56.8663 335.496C57.3314 335.545 58.2369 335.111 59.0871 334.919C59.9372 334.726 60.7561 334.803 61.2391 335.189C61.9077 335.724 62.1192 336.44 62.0909 337.179C62.0577 338.042 61.7245 338.925 61.8718 339.439C62.1823 340.529 62.3836 341.528 61.7008 342.382Z" fill="#FFC462"/>
<path d="M58.6756 332.375C58.9862 331.124 58.5243 329.933 57.6439 329.715C56.7634 329.497 55.7979 330.333 55.4873 331.584C55.1766 332.834 55.6385 334.025 56.519 334.243C57.3994 334.462 58.3649 333.625 58.6756 332.375Z" fill="#FFC462"/>
<path d="M62.9759 332.321C63.7451 331.132 63.7369 329.759 62.9576 329.255C62.1782 328.751 60.9228 329.307 60.1536 330.496C59.3843 331.686 59.3925 333.058 60.1719 333.562C60.9513 334.066 62.2067 333.511 62.9759 332.321Z" fill="#FFC462"/>
<path d="M67.3401 337.475C66.9337 336.664 65.6705 336.475 64.5188 337.052C63.3671 337.63 62.7629 338.756 63.1693 339.567C63.5758 340.378 64.8389 340.567 65.9907 339.989C67.1424 339.411 67.7465 338.286 67.3401 337.475Z" fill="#FFC462"/>
<path d="M66.6329 332.191C65.9701 331.541 64.6291 331.835 63.6375 332.846C62.646 333.858 62.3795 335.204 63.0422 335.854C63.7049 336.504 65.046 336.211 66.0375 335.199C67.0291 334.187 67.2956 332.841 66.6329 332.191Z" fill="#FFC462"/>
<path d="M55.9582 310.299C55.8969 310.893 55.9837 311.579 56.4876 311.991C57.7008 312.982 59.2259 312.067 60.6442 312.213C61.856 312.337 63.3487 313.577 64.5304 313.021C65.2292 312.693 65.5534 311.969 65.6237 311.288C65.7194 310.355 65.1416 309.496 64.2386 308.777C63.873 308.486 63.5315 307.542 63.0604 306.809C62.5894 306.077 61.9512 305.556 61.3349 305.495C60.4828 305.408 59.8294 305.77 59.3316 306.316C58.7498 306.956 58.3651 307.819 57.9034 308.083C56.9144 308.641 56.0701 309.212 55.9582 310.299Z" fill="#FFC462"/>
<path d="M67.9564 306.953C68.6119 305.844 68.5101 304.57 67.7291 304.109C66.9481 303.648 65.7836 304.173 65.1282 305.283C64.4727 306.392 64.5745 307.665 65.3555 308.127C66.1365 308.588 67.301 308.063 67.9564 306.953Z" fill="#FFC462"/>
<path d="M65.3916 302.908C65.6771 301.52 65.1715 300.244 64.2623 300.058C63.3531 299.871 62.3846 300.844 62.0991 302.231C61.8135 303.618 62.3191 304.894 63.2283 305.081C64.1375 305.268 65.106 304.295 65.3916 302.908Z" fill="#FFC462"/>
<path d="M57.6818 304.521C57.2656 303.302 56.2323 302.552 55.3737 302.845C54.5151 303.139 54.1565 304.365 54.5727 305.584C54.9888 306.803 56.0222 307.553 56.8807 307.26C57.7393 306.966 58.0979 305.74 57.6818 304.521Z" fill="#FFC462"/>
<path d="M61.2695 302.147C61.2721 300.731 60.5216 299.582 59.5934 299.581C58.6651 299.58 57.9105 300.727 57.9079 302.143C57.9054 303.559 58.6558 304.708 59.5841 304.709C60.5124 304.711 61.267 303.564 61.2695 302.147Z" fill="#FFC462"/>
<path d="M81.3077 293.828C80.8148 294.163 80.1682 294.412 79.5672 294.164C78.1203 293.566 78.2014 291.789 77.401 290.609C76.7175 289.601 74.9185 288.875 74.8465 287.572C74.8042 286.802 75.2884 286.173 75.8548 285.789C76.6305 285.262 77.6588 285.363 78.7224 285.818C79.1508 286.003 80.1452 285.854 81.0135 285.922C81.8818 285.99 82.6427 286.304 82.9896 286.817C83.4694 287.526 83.4606 288.272 83.2159 288.969C82.9302 289.784 82.353 290.534 82.3398 291.066C82.3147 292.2 82.2121 293.214 81.3077 293.828Z" fill="#FFC462"/>
<path d="M81.3775 283.376C82.0438 282.273 81.9544 280.999 81.178 280.53C80.4015 280.061 79.232 280.575 78.5657 281.678C77.8995 282.781 77.9888 284.056 78.7653 284.525C79.5417 284.993 80.7113 284.479 81.3775 283.376Z" fill="#FFC462"/>
<path d="M86.3905 281.658C85.795 280.946 84.4316 281.105 83.3454 282.014C82.2591 282.923 81.8613 284.237 82.4569 284.949C83.0524 285.661 84.4157 285.501 85.502 284.592C86.5882 283.683 86.986 282.369 86.3905 281.658Z" fill="#FFC462"/>
<path d="M88.1485 290.808C87.9999 289.913 86.8493 289.359 85.5784 289.571C84.3076 289.782 83.3978 290.679 83.5464 291.574C83.695 292.469 84.8457 293.023 86.1165 292.812C87.3873 292.6 88.2971 291.703 88.1485 290.808Z" fill="#FFC462"/>
<path d="M89.0217 285.549C88.5805 284.733 87.2128 284.617 85.9669 285.29C84.721 285.964 84.0686 287.172 84.5098 287.989C84.951 288.805 86.3186 288.921 87.5645 288.248C88.8105 287.574 89.4628 286.366 89.0217 285.549Z" fill="#FFC462"/>
<path d="M85.299 261.475C85.0657 262.025 84.9462 262.708 85.3037 263.249C86.17 264.555 87.8973 264.132 89.2097 264.69C90.3308 265.166 91.39 266.792 92.6813 266.611C93.4453 266.505 93.9718 265.91 94.2401 265.28C94.6074 264.417 94.3102 263.428 93.6589 262.472C93.3952 262.086 93.3484 261.083 93.1145 260.243C92.8807 259.404 92.4246 258.72 91.8562 258.477C91.0682 258.142 90.3371 258.295 89.7003 258.67C88.9554 259.109 88.3343 259.819 87.8123 259.934C86.704 260.175 85.7287 260.471 85.299 261.475Z" fill="#FFC462"/>
<path d="M98.3808 259.038C97.7711 258.366 96.5036 258.524 95.5496 259.39C94.5957 260.256 94.3166 261.503 94.9263 262.175C95.536 262.846 96.8036 262.688 97.7575 261.822C98.7115 260.956 98.9905 259.709 98.3808 259.038Z" fill="#FFC462"/>
<path d="M96.5016 257.207C97.1843 255.966 97.0784 254.597 96.2651 254.15C95.4519 253.703 94.2391 254.346 93.5564 255.587C92.8737 256.828 92.9796 258.197 93.7929 258.644C94.6061 259.091 95.8189 258.448 96.5016 257.207Z" fill="#FFC462"/>
<path d="M88.6627 256.466C88.6255 255.179 87.8602 254.156 86.9533 254.183C86.0465 254.209 85.3416 255.275 85.3788 256.563C85.4161 257.851 86.1814 258.873 87.0882 258.846C87.995 258.82 88.7 257.754 88.6627 256.466Z" fill="#FFC462"/>
<path d="M92.7704 255.253C93.1911 253.901 92.8136 252.581 91.9272 252.305C91.0409 252.03 89.9813 252.903 89.5606 254.256C89.1399 255.608 89.5174 256.928 90.4037 257.203C91.2901 257.478 92.3497 256.605 92.7704 255.253Z" fill="#FFC462"/>
<path d="M207.396 189.525C206.902 189.86 206.256 190.109 205.655 189.861C204.208 189.263 204.289 187.486 203.489 186.306C202.806 185.298 201.006 184.572 200.934 183.269C200.892 182.499 201.376 181.87 201.943 181.485C202.719 180.959 203.746 181.06 204.812 181.517C205.241 181.702 206.235 181.553 207.104 181.621C207.973 181.688 208.733 182.004 209.08 182.515C209.56 183.225 209.552 183.971 209.306 184.668C209.02 185.483 208.443 186.232 208.43 186.765C208.402 187.899 208.301 188.912 207.396 189.525Z" fill="#FFC462"/>
<path d="M207.467 179.075C208.134 177.972 208.044 176.698 207.268 176.229C206.491 175.76 205.322 176.274 204.656 177.377C203.989 178.48 204.079 179.755 204.855 180.224C205.632 180.692 206.801 180.178 207.467 179.075Z" fill="#FFC462"/>
<path d="M212.486 177.352C211.891 176.64 210.527 176.8 209.441 177.709C208.355 178.618 207.957 179.932 208.553 180.644C209.148 181.356 210.511 181.196 211.598 180.287C212.684 179.378 213.082 178.064 212.486 177.352Z" fill="#FFC462"/>
<path d="M214.239 186.507C214.091 185.612 212.94 185.058 211.669 185.269C210.398 185.481 209.489 186.378 209.637 187.273C209.786 188.168 210.936 188.722 212.207 188.51C213.478 188.299 214.388 187.402 214.239 186.507Z" fill="#FFC462"/>
<path d="M215.106 181.248C214.664 180.431 213.297 180.315 212.051 180.989C210.805 181.663 210.153 182.871 210.594 183.687C211.035 184.504 212.403 184.62 213.649 183.946C214.894 183.273 215.547 182.065 215.106 181.248Z" fill="#FFC462"/>
<path d="M211.391 157.175C211.157 157.723 211.038 158.407 211.395 158.948C212.261 160.254 213.988 159.831 215.298 160.387C216.419 160.863 217.479 162.489 218.77 162.309C219.534 162.202 220.061 161.608 220.329 160.977C220.697 160.114 220.399 159.125 219.748 158.169C219.485 157.783 219.437 156.78 219.203 155.94C218.969 155.101 218.513 154.417 217.945 154.174C217.157 153.838 216.426 153.992 215.789 154.367C215.044 154.806 214.423 155.515 213.901 155.631C212.794 155.873 211.818 156.169 211.391 157.175Z" fill="#FFC462"/>
<path d="M223.41 154.957C222.797 154.287 221.529 154.449 220.576 155.32C219.624 156.191 219.349 157.44 219.962 158.11C220.575 158.781 221.843 158.618 222.795 157.748C223.748 156.877 224.023 155.628 223.41 154.957Z" fill="#FFC462"/>
<path d="M222.592 152.906C223.275 151.665 223.169 150.297 222.356 149.849C221.543 149.402 220.33 150.046 219.647 151.287C218.965 152.528 219.07 153.896 219.884 154.344C220.697 154.791 221.91 154.147 222.592 152.906Z" fill="#FFC462"/>
<path d="M214.762 152.165C214.725 150.877 213.96 149.855 213.053 149.882C212.146 149.908 211.441 150.974 211.478 152.262C211.516 153.55 212.281 154.572 213.188 154.545C214.095 154.519 214.8 153.453 214.762 152.165Z" fill="#FFC462"/>
<path d="M218.849 150.945C219.269 149.592 218.892 148.273 218.005 147.997C217.119 147.722 216.059 148.595 215.639 149.947C215.218 151.3 215.595 152.619 216.482 152.895C217.368 153.17 218.428 152.297 218.849 150.945Z" fill="#FFC462"/>
<path d="M242.873 145.141C242.434 145.545 241.832 145.887 241.201 145.729C239.68 145.35 239.501 143.581 238.537 142.53C237.712 141.633 235.826 141.179 235.564 139.901C235.409 139.146 235.795 138.452 236.3 137.989C236.989 137.354 238.021 137.302 239.14 137.596C239.592 137.715 240.553 137.424 241.421 137.362C242.289 137.3 243.087 137.502 243.507 137.956C244.087 138.585 244.187 139.326 244.047 140.052C243.883 140.901 243.419 141.723 243.488 142.255C243.628 143.381 243.675 144.399 242.873 145.141Z" fill="#FFC462"/>
<path d="M241.455 134.822C241.953 133.633 241.677 132.386 240.84 132.036C240.003 131.686 238.922 132.367 238.425 133.555C237.927 134.744 238.203 135.991 239.04 136.341C239.877 136.691 240.958 136.011 241.455 134.822Z" fill="#FFC462"/>
<path d="M246.116 132.349C245.423 131.733 244.098 132.091 243.157 133.15C242.216 134.209 242.015 135.567 242.709 136.183C243.402 136.8 244.728 136.442 245.669 135.383C246.61 134.324 246.81 132.966 246.116 132.349Z" fill="#FFC462"/>
<path d="M249.195 141.147C248.916 140.284 247.696 139.905 246.47 140.301C245.244 140.697 244.476 141.718 244.755 142.582C245.033 143.445 246.253 143.824 247.479 143.428C248.705 143.032 249.473 142.011 249.195 141.147Z" fill="#FFC462"/>
<path d="M249.279 135.82C248.722 135.077 247.353 135.164 246.219 136.013C245.086 136.862 244.618 138.153 245.174 138.896C245.731 139.639 247.101 139.552 248.234 138.703C249.367 137.854 249.835 136.563 249.279 135.82Z" fill="#FFC462"/>
<path d="M242.066 112.554C241.916 113.131 241.897 113.824 242.332 114.307C243.381 115.471 245.029 114.797 246.408 115.158C247.585 115.466 248.874 116.916 250.125 116.548C250.864 116.33 251.296 115.663 251.468 115C251.704 114.093 251.267 113.16 250.48 112.308C250.163 111.965 249.969 110.98 249.615 110.184C249.26 109.389 248.709 108.778 248.111 108.622C247.282 108.406 246.581 108.665 246.006 109.13C245.333 109.673 244.823 110.468 244.324 110.657C243.264 111.06 242.342 111.497 242.066 112.554Z" fill="#FFC462"/>
<path d="M254.656 108.212C253.955 107.637 252.724 107.98 251.907 108.977C251.091 109.974 250.998 111.248 251.7 111.823C252.402 112.397 253.632 112.055 254.449 111.058C255.265 110.061 255.358 108.787 254.656 108.212Z" fill="#FFC462"/>
<path d="M252.522 106.686C253.015 105.359 252.71 104.02 251.839 103.698C250.969 103.375 249.864 104.19 249.371 105.517C248.878 106.845 249.184 108.183 250.054 108.506C250.924 108.829 252.029 108.014 252.522 106.686Z" fill="#FFC462"/>
<path d="M244.671 107.103C244.445 105.835 243.537 104.936 242.644 105.096C241.751 105.255 241.21 106.413 241.436 107.681C241.662 108.949 242.57 109.848 243.463 109.689C244.356 109.529 244.897 108.371 244.671 107.103Z" fill="#FFC462"/>
<path d="M248.524 105.296C248.741 103.896 248.174 102.646 247.257 102.504C246.34 102.362 245.42 103.381 245.202 104.781C244.985 106.18 245.552 107.43 246.469 107.572C247.387 107.714 248.307 106.695 248.524 105.296Z" fill="#FFC462"/>
<path d="M271.621 96.5832C271.229 97.0322 270.668 97.4388 270.023 97.3515C268.471 97.1423 268.097 95.4041 267.022 94.4675C266.103 93.667 264.179 93.4243 263.777 92.1832C263.539 91.4496 263.847 90.7177 264.297 90.201C264.914 89.4932 265.933 89.3294 267.077 89.4983C267.54 89.5662 268.463 89.1702 269.319 89.0134C270.175 88.8567 270.992 88.9679 271.458 89.3744C272.103 89.9375 272.285 90.6615 272.225 91.3982C272.156 92.2601 271.79 93.1312 271.912 93.6489C272.179 94.7521 272.338 95.7579 271.621 96.5832Z" fill="#FFC462"/>
<path d="M269.012 86.4559C269.375 85.2196 268.964 84.0104 268.094 83.7552C267.223 83.4999 266.223 84.2953 265.86 85.5317C265.497 86.768 265.909 87.9772 266.779 88.2324C267.65 88.4876 268.65 87.6923 269.012 86.4559Z" fill="#FFC462"/>
<path d="M273.317 86.5864C274.136 85.4304 274.185 84.0585 273.428 83.5222C272.67 82.9859 271.392 83.4883 270.574 84.6442C269.755 85.8002 269.706 87.1721 270.463 87.7084C271.221 88.2447 272.498 87.7424 273.317 86.5864Z" fill="#FFC462"/>
<path d="M277.452 91.9226C277.08 91.0952 275.826 90.8532 274.651 91.382C273.477 91.9107 272.826 93.0101 273.198 93.8374C273.57 94.6647 274.824 94.9068 275.999 94.378C277.174 93.8493 277.824 92.7499 277.452 91.9226Z" fill="#FFC462"/>
<path d="M276.952 86.6234C276.317 85.9464 274.964 86.1833 273.931 87.1524C272.898 88.1215 272.576 89.456 273.211 90.1329C273.846 90.8099 275.198 90.573 276.231 89.6039C277.264 88.6347 277.587 87.3003 276.952 86.6234Z" fill="#FFC462"/>
<path d="M267.231 64.287C267.145 64.877 267.203 65.567 267.688 65.999C268.858 67.0393 270.422 66.1909 271.833 66.3956C273.038 66.5705 274.477 67.8718 275.68 67.3673C276.392 67.0697 276.747 66.3595 276.845 65.6814C276.98 64.7534 276.441 63.873 275.567 63.1153C275.214 62.8089 274.913 61.8512 274.473 61.0995C274.032 60.3478 273.417 59.801 272.805 59.7121C271.957 59.5899 271.289 59.9237 270.769 60.4487C270.161 61.0631 269.741 61.9093 269.266 62.1523C268.256 62.6701 267.389 63.2053 267.231 64.287Z" fill="#FFC462"/>
<path d="M279.366 61.4529C280.068 60.372 280.02 59.0955 279.259 58.6017C278.498 58.108 277.313 58.584 276.611 59.6649C275.91 60.7458 275.958 62.0223 276.719 62.516C277.479 63.0098 278.665 62.5338 279.366 61.4529Z" fill="#FFC462"/>
<path d="M276.964 57.2977C277.308 55.9237 276.856 54.6275 275.956 54.4026C275.055 54.1777 274.047 55.1093 273.703 56.4833C273.36 57.8573 273.811 59.1535 274.712 59.3784C275.612 59.6033 276.621 58.6717 276.964 57.2977Z" fill="#FFC462"/>
<path d="M269.206 58.5838C268.841 57.3483 267.84 56.5551 266.97 56.8122C266.1 57.0693 265.69 58.2793 266.055 59.5148C266.419 60.7503 267.42 61.5435 268.29 61.2865C269.16 61.0294 269.57 59.8194 269.206 58.5838Z" fill="#FFC462"/>
<path d="M272.899 56.3673C272.962 54.9524 272.26 53.7728 271.333 53.7325C270.405 53.6922 269.603 54.8065 269.541 56.2213C269.479 57.6362 270.181 58.8159 271.108 58.8562C272.035 58.8965 272.837 57.7822 272.899 56.3673Z" fill="#FFC462"/>
<path d="M296.647 44.6766C296.363 45.2005 295.904 45.7199 295.256 45.7757C293.694 45.9117 292.95 44.2969 291.692 43.6187C290.621 43.0385 288.689 43.2223 288.026 42.0993C287.634 41.435 287.774 40.6542 288.1 40.0515C288.547 39.2274 289.506 38.8435 290.66 38.7579C291.126 38.7231 291.94 38.1353 292.743 37.7952C293.545 37.4551 294.365 37.385 294.909 37.6796C295.662 38.0871 295.997 38.7548 296.102 39.487C296.222 40.3433 296.053 41.2723 296.288 41.7513C296.793 42.7657 297.169 43.7132 296.647 44.6766Z" fill="#FFC462"/>
<path d="M291.875 35.3651C291.959 34.0794 291.293 32.9896 290.388 32.9309C289.483 32.8722 288.681 33.8669 288.597 35.1526C288.513 36.4382 289.179 37.528 290.084 37.5867C290.99 37.6454 291.792 36.6508 291.875 35.3651Z" fill="#FFC462"/>
<path d="M296.112 34.5494C296.658 33.2425 296.406 31.8932 295.55 31.5355C294.693 31.1779 293.556 31.9474 293.01 33.2543C292.464 34.5612 292.716 35.9105 293.572 36.2682C294.429 36.6258 295.566 35.8563 296.112 34.5494Z" fill="#FFC462"/>
<path d="M301.309 38.861C300.766 38.1351 299.489 38.1732 298.458 38.946C297.427 39.7189 297.032 40.9339 297.576 41.6598C298.12 42.3857 299.396 42.3476 300.427 41.5747C301.458 40.8019 301.853 39.5869 301.309 38.861Z" fill="#FFC462"/>
<path d="M301.536 36.5583C302.338 35.3856 302.365 34.0087 301.597 33.483C300.828 32.9573 299.555 33.4819 298.753 34.6546C297.95 35.8274 297.923 37.2042 298.691 37.7299C299.46 38.2556 300.733 37.7311 301.536 36.5583Z" fill="#FFC462"/>
<path d="M285.303 14.125C285.348 14.719 285.555 15.3798 286.124 15.6957C287.494 16.4558 288.833 15.2852 290.256 15.1745C291.471 15.0816 293.16 16.0365 294.224 15.2816C294.853 14.8345 295.046 14.0659 294.992 13.3817C294.921 12.4466 294.202 11.7054 293.183 11.157C292.772 10.9356 292.269 10.0669 291.675 9.42986C291.081 8.79279 290.361 8.3937 289.744 8.44052C288.888 8.50426 288.312 8.97872 287.919 9.60454C287.459 10.337 287.234 11.2541 286.824 11.5957C285.95 12.3228 285.22 13.0347 285.303 14.125Z" fill="#FFC462"/>
<path d="M296.518 8.70265C296.966 7.49461 296.64 6.25969 295.789 5.94435C294.939 5.62901 293.886 6.35265 293.438 7.56069C292.989 8.76873 293.315 10.0037 294.166 10.319C295.016 10.6344 296.069 9.91069 296.518 8.70265Z" fill="#FFC462"/>
<path d="M293.264 5.17712C293.299 3.76132 292.575 2.59534 291.647 2.57285C290.719 2.55036 289.938 3.67987 289.903 5.09567C289.868 6.51146 290.592 7.67741 291.52 7.6999C292.448 7.7224 293.229 6.59291 293.264 5.17712Z" fill="#FFC462"/>
<path d="M285.975 8.13289C285.349 7.00707 284.199 6.45199 283.406 6.89311C282.613 7.33422 282.477 8.60448 283.103 9.73031C283.729 10.8561 284.879 11.4112 285.672 10.9701C286.465 10.529 286.6 9.25872 285.975 8.13289Z" fill="#FFC462"/>
<path d="M289.096 5.15777C288.847 3.76369 287.905 2.7661 286.991 2.92956C286.077 3.09302 285.538 4.35564 285.787 5.74972C286.036 7.14379 286.978 8.14141 287.892 7.97795C288.806 7.81449 289.345 6.55184 289.096 5.15777Z" fill="#FFC462"/>
<path d="M114.706 252.995C114.135 253.166 113.444 253.21 112.945 252.794C111.743 251.789 112.353 250.119 111.944 248.753C111.594 247.585 110.094 246.354 110.416 245.09C110.607 244.342 111.256 243.887 111.913 243.69C112.81 243.42 113.761 243.824 114.639 244.577C114.994 244.881 115.985 245.038 116.793 245.363C117.601 245.688 118.233 246.216 118.411 246.808C118.657 247.628 118.424 248.338 117.982 248.931C117.464 249.623 116.689 250.163 116.518 250.669C116.154 251.743 115.753 252.68 114.706 252.995Z" fill="#FFC462"/>
<path d="M118.563 240.267C117.963 239.587 116.694 239.727 115.728 240.58C114.762 241.433 114.465 242.676 115.065 243.356C115.666 244.036 116.935 243.896 117.901 243.043C118.867 242.19 119.164 240.947 118.563 240.267Z" fill="#FFC462"/>
<path d="M123.198 242.905C122.844 242.047 121.495 241.791 120.187 242.333C118.878 242.875 118.105 244.01 118.46 244.867C118.815 245.725 120.163 245.981 121.472 245.439C122.78 244.897 123.553 243.762 123.198 242.905Z" fill="#FFC462"/>
<path d="M122.134 252.161C122.26 251.263 121.328 250.39 120.052 250.211C118.777 250.032 117.64 250.615 117.514 251.514C117.388 252.412 118.319 253.286 119.595 253.464C120.871 253.643 122.007 253.06 122.134 252.161Z" fill="#FFC462"/>
<path d="M124.539 247.406C124.363 246.495 123.093 245.974 121.702 246.244C120.312 246.513 119.328 247.471 119.504 248.382C119.68 249.293 120.95 249.814 122.341 249.544C123.731 249.275 124.715 248.317 124.539 247.406Z" fill="#FFC462"/>
<path d="M128.206 223.319C127.82 223.773 127.502 224.389 127.681 225.012C128.116 226.518 129.891 226.631 130.975 227.557C131.902 228.348 132.425 230.216 133.712 230.431C134.473 230.557 135.149 230.144 135.598 229.622C136.208 228.908 136.219 227.876 135.884 226.768C135.749 226.321 136.004 225.35 136.035 224.477C136.065 223.603 135.834 222.815 135.363 222.414C134.712 221.858 133.969 221.786 133.249 221.952C132.407 222.148 131.601 222.64 131.07 222.593C129.934 222.5 128.915 222.49 128.206 223.319Z" fill="#FFC462"/>
<path d="M141.413 224.913C141.033 224.09 139.776 223.861 138.607 224.401C137.437 224.942 136.798 226.048 137.178 226.872C137.559 227.695 138.815 227.924 139.985 227.384C141.154 226.843 141.794 225.737 141.413 224.913Z" fill="#FFC462"/>
<path d="M140.858 219.612C140.216 218.941 138.866 219.192 137.843 220.172C136.82 221.152 136.511 222.489 137.153 223.16C137.795 223.83 139.145 223.579 140.168 222.6C141.191 221.62 141.5 220.282 140.858 219.612Z" fill="#FFC462"/>
<path d="M132.914 219.547C133.264 218.307 132.84 217.102 131.967 216.856C131.094 216.609 130.102 217.415 129.752 218.655C129.402 219.895 129.826 221.1 130.699 221.346C131.572 221.592 132.564 220.787 132.914 219.547Z" fill="#FFC462"/>
<path d="M137.215 219.635C138.021 218.471 138.057 217.099 137.294 216.57C136.531 216.042 135.258 216.557 134.452 217.722C133.645 218.886 133.61 220.258 134.373 220.787C135.136 221.315 136.408 220.8 137.215 219.635Z" fill="#FFC462"/>
<path d="M162.186 223.553C161.627 223.761 160.94 223.849 160.416 223.465C159.153 222.54 159.655 220.833 159.159 219.496C158.735 218.354 157.161 217.22 157.401 215.938C157.544 215.18 158.163 214.684 158.805 214.446C159.684 214.119 160.659 214.462 161.583 215.157C161.956 215.438 162.956 215.531 163.783 215.804C164.611 216.078 165.274 216.564 165.489 217.143C165.787 217.947 165.6 218.67 165.196 219.289C164.723 220.012 163.985 220.601 163.846 221.116C163.551 222.212 163.211 223.172 162.186 223.553Z" fill="#FFC462"/>
<path d="M165.236 210.599C164.593 209.958 163.335 210.179 162.426 211.091C161.516 212.004 161.299 213.263 161.941 213.903C162.584 214.544 163.842 214.323 164.752 213.411C165.661 212.498 165.878 211.239 165.236 210.599Z" fill="#FFC462"/>
<path d="M170.034 212.939C169.625 212.105 168.263 211.936 166.992 212.56C165.72 213.184 165.021 214.366 165.43 215.199C165.839 216.032 167.201 216.202 168.472 215.578C169.743 214.954 170.443 213.772 170.034 212.939Z" fill="#FFC462"/>
<path d="M168.774 222.318C168.84 221.415 167.853 220.607 166.57 220.514C165.287 220.421 164.193 221.079 164.128 221.982C164.062 222.886 165.049 223.694 166.332 223.787C167.615 223.879 168.709 223.222 168.774 222.318Z" fill="#FFC462"/>
<path d="M171.654 217.349C171.42 216.45 170.12 216.012 168.749 216.369C167.379 216.727 166.458 217.745 166.692 218.643C166.926 219.542 168.226 219.98 169.597 219.622C170.967 219.265 171.888 218.247 171.654 217.349Z" fill="#FFC462"/>
<path d="M173.769 193.081C173.411 193.558 173.132 194.192 173.352 194.804C173.882 196.279 175.66 196.279 176.801 197.133C177.777 197.864 178.418 199.695 179.716 199.827C180.483 199.905 181.134 199.451 181.545 198.902C182.108 198.151 182.054 197.12 181.649 196.036C181.485 195.599 181.679 194.612 181.653 193.744C181.626 192.875 181.346 192.098 180.851 191.728C180.165 191.215 179.419 191.19 178.711 191.402C177.883 191.651 177.108 192.192 176.577 192.181C175.44 192.148 174.423 192.206 173.769 193.081Z" fill="#FFC462"/>
<path d="M187.026 193.836C186.594 193.039 185.325 192.89 184.192 193.505C183.06 194.119 182.492 195.263 182.924 196.061C183.357 196.858 184.625 197.007 185.758 196.392C186.89 195.778 187.458 194.634 187.026 193.836Z" fill="#FFC462"/>
<path d="M186.171 188.562C185.487 187.934 184.156 188.27 183.198 189.313C182.239 190.356 182.016 191.71 182.699 192.339C183.383 192.967 184.714 192.63 185.672 191.588C186.631 190.545 186.854 189.19 186.171 188.562Z" fill="#FFC462"/>
<path d="M178.203 189.006C178.473 187.747 177.973 186.571 177.086 186.381C176.199 186.191 175.261 187.059 174.99 188.318C174.72 189.578 175.22 190.753 176.107 190.943C176.994 191.133 177.932 190.266 178.203 189.006Z" fill="#FFC462"/>
<path d="M182.506 188.814C183.237 187.6 183.185 186.229 182.389 185.75C181.594 185.271 180.357 185.867 179.627 187.08C178.896 188.294 178.948 189.666 179.743 190.144C180.539 190.623 181.776 190.027 182.506 188.814Z" fill="#FFC462"/>
</g>
<defs>
<clipPath id="clip0_304_3116">
<rect width="459.501" height="65.643" fill="white" transform="translate(0 357.346) rotate(-51.049)"/>
</clipPath>
</defs>
</svg>
