<svg width="196" height="459" viewBox="0 0 196 459" fill="none" xmlns="http://www.w3.org/2000/svg">
<g clip-path="url(#clip0_304_3209)">
<path d="M193.946 436.402C194.241 436.92 194.44 437.584 194.146 438.164C193.438 439.562 191.674 439.343 190.435 440.05C189.376 440.654 188.515 442.392 187.211 442.363C186.439 442.346 185.85 441.815 185.511 441.22C185.046 440.406 185.226 439.388 185.761 438.363C185.978 437.949 185.908 436.946 186.043 436.086C186.178 435.226 186.55 434.491 187.087 434.185C187.83 433.76 188.574 433.827 189.25 434.125C190.041 434.474 190.741 435.108 191.272 435.161C192.401 435.273 193.404 435.453 193.946 436.402Z" fill="#FFC462"/>
<path d="M183.532 435.527C182.484 434.778 181.207 434.769 180.679 435.507C180.152 436.245 180.574 437.451 181.622 438.2C182.67 438.95 183.947 438.959 184.474 438.221C185.002 437.483 184.58 436.277 183.532 435.527Z" fill="#FFC462"/>
<path d="M185.067 431.512C184.245 430.359 182.966 429.861 182.21 430.4C181.455 430.939 181.508 432.311 182.331 433.464C183.153 434.618 184.432 435.116 185.188 434.577C185.943 434.038 185.889 432.666 185.067 431.512Z" fill="#FFC462"/>
<path d="M191.465 429.348C190.561 429.427 189.92 430.532 190.033 431.815C190.145 433.099 190.969 434.075 191.873 433.996C192.776 433.917 193.417 432.812 193.305 431.529C193.192 430.245 192.368 429.269 191.465 429.348Z" fill="#FFC462"/>
<path d="M188.865 429.728C188.29 428.433 187.136 427.69 186.288 428.067C185.44 428.444 185.218 429.798 185.794 431.093C186.369 432.387 187.522 433.131 188.371 432.754C189.219 432.377 189.44 431.022 188.865 429.728Z" fill="#FFC462"/>
<path d="M162.007 429.926C162.536 430.2 163.206 430.373 163.774 430.056C165.143 429.293 164.854 427.538 165.512 426.273C166.074 425.191 167.778 424.26 167.696 422.959C167.648 422.189 167.095 421.62 166.487 421.304C165.655 420.871 164.646 421.091 163.642 421.667C163.237 421.9 162.234 421.869 161.38 422.038C160.525 422.206 159.806 422.608 159.521 423.156C159.126 423.916 159.222 424.657 159.547 425.321C159.926 426.098 160.587 426.772 160.661 427.302C160.817 428.426 161.037 429.421 162.007 429.926Z" fill="#FFC462"/>
<path d="M163.32 417.537C162.53 416.519 161.309 416.144 160.593 416.7C159.876 417.257 159.935 418.533 160.725 419.551C161.515 420.569 162.736 420.943 163.453 420.387C164.169 419.831 164.11 418.555 163.32 417.537Z" fill="#FFC462"/>
<path d="M158.615 418.429C157.43 417.653 156.058 417.653 155.549 418.429C155.04 419.206 155.588 420.465 156.773 421.241C157.957 422.018 159.329 422.018 159.838 421.241C160.347 420.465 159.799 419.206 158.615 418.429Z" fill="#FFC462"/>
<path d="M157.272 426.193C155.986 426.131 154.908 426.815 154.864 427.721C154.82 428.628 155.828 429.413 157.115 429.475C158.401 429.537 159.48 428.853 159.523 427.946C159.567 427.04 158.559 426.255 157.272 426.193Z" fill="#FFC462"/>
<path d="M156.388 421.985C155.073 421.461 153.728 421.736 153.385 422.598C153.042 423.461 153.83 424.585 155.145 425.109C156.461 425.633 157.806 425.359 158.149 424.496C158.492 423.634 157.704 422.51 156.388 421.985Z" fill="#FFC462"/>
<path d="M155.376 399.387C155.552 399.957 155.601 400.648 155.191 401.148C154.194 402.358 152.52 401.76 151.158 402.179C149.993 402.538 148.772 404.045 147.506 403.733C146.757 403.547 146.298 402.901 146.096 402.246C145.819 401.349 146.218 400.396 146.964 399.512C147.265 399.155 147.416 398.162 147.735 397.351C148.054 396.54 148.578 395.906 149.169 395.724C149.987 395.472 150.699 395.7 151.293 396.138C151.989 396.652 152.531 397.423 153.039 397.591C154.115 397.947 155.054 398.342 155.376 399.387Z" fill="#FFC462"/>
<path d="M145.4 396.261C144.54 395.301 143.296 395.013 142.62 395.619C141.945 396.224 142.093 397.493 142.953 398.453C143.812 399.413 145.057 399.701 145.732 399.095C146.408 398.49 146.259 397.221 145.4 396.261Z" fill="#FFC462"/>
<path d="M147.774 392.675C147.224 391.37 146.084 390.605 145.229 390.966C144.374 391.327 144.127 392.678 144.678 393.982C145.229 395.287 146.369 396.053 147.224 395.691C148.079 395.33 148.325 393.98 147.774 392.675Z" fill="#FFC462"/>
<path d="M154.49 391.964C153.591 391.844 152.724 392.782 152.555 394.059C152.385 395.337 152.976 396.469 153.875 396.589C154.774 396.709 155.641 395.771 155.811 394.494C155.981 393.217 155.389 392.084 154.49 391.964Z" fill="#FFC462"/>
<path d="M149.723 389.578C148.813 389.76 148.302 391.034 148.581 392.423C148.86 393.812 149.823 394.789 150.733 394.607C151.643 394.424 152.155 393.15 151.876 391.761C151.597 390.373 150.633 389.395 149.723 389.578Z" fill="#FFC462"/>
<path d="M125.617 386.094C126.074 386.479 126.69 386.793 127.314 386.608C128.815 386.162 128.917 384.386 129.835 383.295C130.619 382.363 132.483 381.826 132.689 380.536C132.81 379.774 132.393 379.099 131.87 378.658C131.152 378.054 130.118 378.049 129.015 378.391C128.569 378.53 127.596 378.281 126.725 378.259C125.855 378.237 125.065 378.471 124.668 378.947C124.117 379.602 124.049 380.346 124.221 381.065C124.422 381.906 124.919 382.709 124.879 383.24C124.784 384.371 124.781 385.39 125.617 386.094Z" fill="#FFC462"/>
<path d="M129.598 374.291C129.049 373.125 127.939 372.493 127.119 372.88C126.298 373.266 126.078 374.524 126.626 375.69C127.175 376.856 128.285 377.488 129.106 377.102C129.927 376.715 130.147 375.457 129.598 374.291Z" fill="#FFC462"/>
<path d="M124.81 374.137C123.824 373.121 122.484 372.821 121.818 373.468C121.153 374.115 121.413 375.463 122.399 376.479C123.386 377.496 124.725 377.795 125.391 377.148C126.057 376.501 125.797 375.153 124.81 374.137Z" fill="#FFC462"/>
<path d="M121.809 381.419C120.567 381.078 119.365 381.51 119.125 382.385C118.885 383.26 119.697 384.246 120.939 384.588C122.182 384.929 123.383 384.497 123.623 383.622C123.863 382.747 123.051 381.761 121.809 381.419Z" fill="#FFC462"/>
<path d="M121.863 377.118C120.694 376.32 119.321 376.294 118.798 377.061C118.275 377.828 118.799 379.097 119.969 379.896C121.139 380.694 122.511 380.72 123.034 379.953C123.557 379.186 123.033 377.917 121.863 377.118Z" fill="#FFC462"/>
<path d="M126.252 355.87C126.252 356.466 126.095 357.141 125.552 357.498C124.244 358.359 122.82 357.292 121.394 357.291C120.176 357.289 118.564 358.368 117.446 357.695C116.786 357.297 116.538 356.543 116.538 355.858C116.539 354.921 117.201 354.127 118.175 353.504C118.569 353.254 119.005 352.348 119.55 351.668C120.094 350.988 120.782 350.535 121.401 350.537C122.257 350.539 122.869 350.966 123.308 351.56C123.821 352.254 124.116 353.153 124.549 353.463C125.473 354.122 126.254 354.777 126.252 355.87Z" fill="#FFC462"/>
<path d="M117.649 349.935C117.112 348.764 116.008 348.121 115.183 348.499C114.359 348.878 114.126 350.134 114.664 351.305C115.201 352.476 116.305 353.119 117.129 352.741C117.954 352.362 118.186 351.106 117.649 349.935Z" fill="#FFC462"/>
<path d="M119.047 344.823C118.124 344.915 117.489 346.132 117.63 347.541C117.771 348.951 118.634 350.019 119.557 349.927C120.481 349.834 121.115 348.617 120.974 347.208C120.834 345.798 119.971 344.731 119.047 344.823Z" fill="#FFC462"/>
<path d="M127.602 348.515C126.778 348.135 125.673 348.775 125.133 349.944C124.594 351.114 124.824 352.371 125.647 352.751C126.471 353.132 127.576 352.492 128.116 351.322C128.656 350.152 128.425 348.895 127.602 348.515Z" fill="#FFC462"/>
<path d="M123.745 344.836C122.821 344.742 121.956 345.807 121.813 347.216C121.669 348.625 122.301 349.844 123.225 349.939C124.148 350.033 125.013 348.967 125.156 347.558C125.3 346.149 124.668 344.93 123.745 344.836Z" fill="#FFC462"/>
<path d="M101.744 334.376C102.067 334.878 102.565 335.361 103.214 335.37C104.781 335.388 105.402 333.722 106.602 332.95C107.626 332.291 109.566 332.329 110.143 331.16C110.484 330.468 110.289 329.699 109.918 329.122C109.412 328.334 108.426 328.023 107.27 328.024C106.802 328.025 105.947 327.5 105.121 327.221C104.295 326.942 103.473 326.935 102.953 327.268C102.232 327.731 101.948 328.422 101.9 329.159C101.844 330.022 102.081 330.935 101.883 331.431C101.459 332.483 101.156 333.456 101.744 334.376Z" fill="#FFC462"/>
<path d="M107.085 322.188C106.186 322.315 105.604 323.451 105.784 324.727C105.964 326.003 106.838 326.935 107.736 326.809C108.634 326.682 109.216 325.545 109.037 324.269C108.857 322.993 107.983 322.062 107.085 322.188Z" fill="#FFC462"/>
<path d="M104.514 322.713C103.872 321.451 102.68 320.769 101.853 321.19C101.026 321.611 100.876 322.975 101.519 324.238C102.161 325.5 103.352 326.182 104.179 325.761C105.006 325.34 105.156 323.975 104.514 322.713Z" fill="#FFC462"/>
<path d="M99.4932 328.778C98.4073 328.085 97.1316 328.143 96.6436 328.908C96.1557 329.673 96.6404 330.855 97.7263 331.548C98.8121 332.241 100.088 332.183 100.576 331.419C101.064 330.654 100.579 329.472 99.4932 328.778Z" fill="#FFC462"/>
<path d="M100.8 324.699C99.918 323.591 98.6145 323.161 97.8883 323.739C97.1621 324.317 97.2883 325.684 98.17 326.792C99.0518 327.901 100.355 328.331 101.081 327.753C101.808 327.175 101.682 325.807 100.8 324.699Z" fill="#FFC462"/>
<path d="M110.906 192.953C110.906 193.55 110.748 194.224 110.205 194.581C108.897 195.442 107.474 194.376 106.047 194.374C104.83 194.372 103.218 195.452 102.1 194.779C101.439 194.381 101.191 193.627 101.192 192.941C101.193 192.004 101.854 191.211 102.832 190.586C103.226 190.336 103.662 189.43 104.206 188.75C104.75 188.07 105.438 187.618 106.057 187.619C106.913 187.621 107.526 188.048 107.964 188.643C108.477 189.337 108.773 190.236 109.205 190.546C110.128 191.207 110.908 191.86 110.906 192.953Z" fill="#FFC462"/>
<path d="M102.306 187.018C101.769 185.847 100.665 185.204 99.8405 185.582C99.0161 185.961 98.7835 187.217 99.3209 188.388C99.8583 189.559 100.962 190.202 101.787 189.823C102.611 189.445 102.844 188.189 102.306 187.018Z" fill="#FFC462"/>
<path d="M103.702 181.899C102.779 181.991 102.144 183.208 102.285 184.618C102.426 186.027 103.289 187.095 104.213 187.003C105.136 186.911 105.771 185.694 105.63 184.284C105.489 182.875 104.626 181.807 103.702 181.899Z" fill="#FFC462"/>
<path d="M112.259 185.597C111.435 185.217 110.33 185.857 109.791 187.027C109.251 188.197 109.481 189.453 110.305 189.834C111.128 190.214 112.233 189.574 112.773 188.404C113.313 187.234 113.083 185.978 112.259 185.597Z" fill="#FFC462"/>
<path d="M108.398 181.924C107.475 181.829 106.61 182.895 106.466 184.304C106.322 185.713 106.955 186.932 107.878 187.026C108.801 187.121 109.666 186.055 109.81 184.646C109.953 183.237 109.321 182.018 108.398 181.924Z" fill="#FFC462"/>
<path d="M86.4019 171.459C86.7241 171.96 87.2223 172.443 87.8708 172.453C89.4378 172.47 90.0589 170.804 91.2555 170.034C92.28 169.375 94.2197 169.413 94.797 168.243C95.138 167.552 94.943 166.782 94.5726 166.206C94.0653 165.416 93.0801 165.106 91.9234 165.107C91.4563 165.108 90.6003 164.583 89.7745 164.304C88.9486 164.026 88.127 164.018 87.6062 164.351C86.8858 164.814 86.6014 165.505 86.5534 166.242C86.4975 167.105 86.735 168.018 86.537 168.514C86.1143 169.566 85.8108 170.539 86.4019 171.459Z" fill="#FFC462"/>
<path d="M91.3274 160.273C90.4285 160.402 89.8493 161.543 90.0338 162.82C90.2183 164.097 91.0965 165.027 91.9954 164.897C92.8943 164.767 93.4735 163.627 93.289 162.35C93.1046 161.073 92.2263 160.143 91.3274 160.273Z" fill="#FFC462"/>
<path d="M89.1722 159.795C88.5298 158.533 87.3386 157.851 86.5114 158.272C85.6843 158.693 85.5345 160.057 86.1768 161.32C86.8191 162.582 88.0104 163.264 88.8375 162.843C89.6647 162.422 89.8145 161.057 89.1722 159.795Z" fill="#FFC462"/>
<path d="M84.1553 165.853C83.0694 165.16 81.7936 165.218 81.3057 165.983C80.8178 166.747 81.3025 167.93 82.3884 168.623C83.4742 169.316 84.75 169.258 85.2379 168.494C85.7259 167.729 85.2411 166.547 84.1553 165.853Z" fill="#FFC462"/>
<path d="M85.4443 161.788C84.5625 160.68 83.259 160.25 82.5328 160.828C81.8067 161.406 81.9328 162.773 82.8146 163.881C83.6963 164.99 84.9998 165.42 85.726 164.842C86.4522 164.264 86.3261 162.897 85.4443 161.788Z" fill="#FFC462"/>
<path d="M94.1548 138.659C94.2418 139.249 94.186 139.939 93.7008 140.372C92.5323 141.417 90.9686 140.57 89.5575 140.776C88.3521 140.953 86.9159 142.258 85.7121 141.756C85.0004 141.46 84.644 140.75 84.5441 140.072C84.4073 139.145 84.9448 138.263 85.8171 137.503C86.1694 137.196 86.4687 136.237 86.9056 135.485C87.3424 134.732 87.9585 134.186 88.5697 134.094C89.4165 133.968 90.0855 134.303 90.6065 134.826C91.2166 135.439 91.6359 136.285 92.1137 136.527C93.1236 137.045 93.9925 137.578 94.1548 138.659Z" fill="#FFC462"/>
<path d="M84.8248 134.028C84.1214 132.948 82.9352 132.475 82.1753 132.97C81.4154 133.465 81.3697 134.742 82.0731 135.822C82.7765 136.901 83.9627 137.375 84.7226 136.88C85.4824 136.384 85.5282 135.108 84.8248 134.028Z" fill="#FFC462"/>
<path d="M85.4015 128.783C84.5015 129.01 84.0527 130.307 84.3991 131.681C84.7454 133.054 85.7557 133.984 86.6557 133.757C87.5556 133.53 88.0044 132.233 87.6581 130.859C87.3117 129.486 86.3014 128.556 85.4015 128.783Z" fill="#FFC462"/>
<path d="M94.4065 131.185C93.5359 130.93 92.5368 131.726 92.1748 132.962C91.8129 134.199 92.2251 135.408 93.0956 135.663C93.9662 135.919 94.9653 135.123 95.3273 133.887C95.6893 132.65 95.277 131.441 94.4065 131.185Z" fill="#FFC462"/>
<path d="M90.049 128.12C89.1218 128.162 88.4228 129.344 88.4878 130.758C88.5527 132.173 89.3569 133.286 90.2841 133.244C91.2113 133.201 91.9103 132.02 91.8453 130.605C91.7804 129.19 90.9761 128.078 90.049 128.12Z" fill="#FFC462"/>
<path d="M66.7551 121.001C67.1477 121.449 67.71 121.854 68.3537 121.766C69.9065 121.553 70.2755 119.812 71.3491 118.875C72.2661 118.074 74.1899 117.824 74.5886 116.583C74.8239 115.849 74.5157 115.117 74.0644 114.602C73.4472 113.896 72.4294 113.733 71.283 113.904C70.821 113.974 69.8977 113.58 69.0401 113.426C68.1825 113.272 67.3672 113.384 66.9022 113.791C66.2575 114.355 66.0776 115.08 66.1384 115.817C66.2095 116.679 66.5797 117.548 66.4558 118.067C66.193 119.17 66.0357 120.178 66.7551 121.001Z" fill="#FFC462"/>
<path d="M70.2435 108.148C69.3737 108.405 68.9648 109.616 69.3301 110.851C69.6955 112.087 70.6969 112.88 71.5667 112.623C72.4365 112.366 72.8454 111.156 72.48 109.92C72.1147 108.684 71.1133 107.891 70.2435 108.148Z" fill="#FFC462"/>
<path d="M67.7829 109.055C66.9621 107.9 65.6837 107.401 64.9274 107.939C64.1711 108.477 64.2234 109.849 65.0441 111.003C65.8649 112.157 67.1434 112.657 67.8996 112.119C68.6559 111.581 68.6036 110.209 67.7829 109.055Z" fill="#FFC462"/>
<path d="M63.7117 115.782C62.5358 115.256 61.2824 115.5 60.9122 116.329C60.5419 117.157 61.195 118.255 62.3709 118.781C63.5468 119.308 64.8002 119.063 65.1704 118.234C65.5407 117.406 64.8876 116.308 63.7117 115.782Z" fill="#FFC462"/>
<path d="M64.3835 111.579C63.3485 110.612 61.996 110.379 61.3627 111.057C60.7293 111.736 61.0549 113.07 62.0899 114.036C63.1249 115.003 64.4773 115.237 65.1107 114.558C65.744 113.88 65.4185 112.546 64.3835 111.579Z" fill="#FFC462"/>
<path d="M70.167 87.581C70.318 88.1577 70.3386 88.8502 69.9041 89.334C68.858 90.5003 67.2104 89.8319 65.8316 90.1941C64.653 90.5036 63.3701 91.9585 62.118 91.5927C61.3777 91.3768 60.9455 90.7106 60.7712 90.0482C60.533 89.1397 60.9703 88.2053 61.7536 87.3539C62.0697 87.0099 62.2614 86.0236 62.6132 85.2276C62.965 84.4315 63.5161 83.819 64.1143 83.6622C64.943 83.4448 65.6436 83.7022 66.2195 84.1653C66.8932 84.7074 67.4075 85.5003 67.9046 85.6899C68.967 86.0895 69.8878 86.5241 70.167 87.581Z" fill="#FFC462"/>
<path d="M60.3268 84.043C59.5085 83.0477 58.2773 82.7079 57.5767 83.2842C56.8762 83.8605 56.9716 85.1345 57.7899 86.1299C58.6082 87.1252 59.8394 87.465 60.5399 86.8887C61.2405 86.3124 61.145 85.0384 60.3268 84.043Z" fill="#FFC462"/>
<path d="M62.8547 80.5565C62.3591 79.2296 61.2525 78.4172 60.3831 78.742C59.5136 79.0668 59.2106 80.4058 59.7062 81.7327C60.2018 83.0596 61.3083 83.872 62.1778 83.5472C63.0472 83.2224 63.3502 81.8835 62.8547 80.5565Z" fill="#FFC462"/>
<path d="M69.5932 80.1372C68.6998 79.9795 67.7945 80.8804 67.571 82.1493C67.3476 83.4183 67.8905 84.5747 68.7839 84.7324C69.6772 84.89 70.5825 83.9891 70.806 82.7202C71.0295 81.4513 70.4865 80.2948 69.5932 80.1372Z" fill="#FFC462"/>
<path d="M64.9292 77.5719C64.0123 77.7163 63.4479 78.9676 63.6683 80.3668C63.8888 81.766 64.8108 82.7832 65.7276 82.6388C66.6445 82.4945 67.209 81.2432 66.9885 79.844C66.768 78.4448 65.846 77.4276 64.9292 77.5719Z" fill="#FFC462"/>
<path d="M40.9932 73.0498C41.4331 73.4521 42.036 73.7927 42.6662 73.634C44.1842 73.252 44.3621 71.4815 45.3247 70.4301C46.1473 69.5314 48.0324 69.0736 48.2918 67.7949C48.446 67.039 48.0581 66.3464 47.5528 65.8835C46.8613 65.2501 45.8298 65.2013 44.712 65.4976C44.2601 65.6173 43.2989 65.3277 42.4297 65.269C41.5606 65.2103 40.7623 65.4119 40.3448 65.8677C39.7671 66.5 39.6675 67.2401 39.8091 67.9653C39.975 68.8139 40.4385 69.6373 40.3725 70.1665C40.2329 71.2926 40.1875 72.311 40.9932 73.0498Z" fill="#FFC462"/>
<path d="M45.4734 61.421C44.9741 60.2331 43.8915 59.5551 43.0553 59.9066C42.2192 60.2582 41.9462 61.5062 42.4455 62.6941C42.9448 63.882 44.0274 64.56 44.8636 64.2084C45.6997 63.8569 45.9728 62.6089 45.4734 61.421Z" fill="#FFC462"/>
<path d="M40.6866 61.071C39.7436 60.0142 38.4179 59.6586 37.7255 60.2768C37.0332 60.895 37.2364 62.2529 38.1793 63.3097C39.1223 64.3665 40.448 64.722 41.1403 64.1038C41.8327 63.4856 41.6295 62.1278 40.6866 61.071Z" fill="#FFC462"/>
<path d="M37.3874 68.2092C36.1607 67.8159 34.942 68.1975 34.6653 69.0615C34.3886 69.9256 35.1587 70.9449 36.3854 71.3383C37.612 71.7317 38.8308 71.3501 39.1075 70.486C39.3842 69.6219 38.6141 68.6026 37.3874 68.2092Z" fill="#FFC462"/>
<path d="M37.6317 63.9084C36.4967 63.0614 35.1268 62.9781 34.572 63.7223C34.0171 64.4665 34.4875 65.7564 35.6225 66.6034C36.7576 67.4503 38.1275 67.5337 38.6823 66.7895C39.2372 66.0453 38.7668 64.7554 37.6317 63.9084Z" fill="#FFC462"/>
<path d="M41.3181 37.6975C41.5914 38.2273 41.7626 38.8991 41.4447 39.4659C40.6791 40.8337 38.9251 40.5413 37.6568 41.2002C36.5748 41.7596 35.6406 43.4601 34.3388 43.3773C33.5692 43.3278 33.0021 42.7731 32.6873 42.1643C32.257 41.3316 32.479 40.3225 33.0572 39.32C33.2902 38.9154 33.2622 37.9113 33.4322 37.0565C33.6023 36.2017 34.0053 35.4842 34.5546 35.2004C35.315 34.8069 36.0556 34.9052 36.7199 35.2304C37.4959 35.6121 38.1688 36.2747 38.6972 36.3495C39.8201 36.502 40.8151 36.724 41.3181 37.6975Z" fill="#FFC462"/>
<path d="M30.9355 36.4074C29.9195 35.615 28.6439 35.5528 28.0863 36.2684C27.5287 36.984 27.9003 38.2064 28.9163 38.9987C29.9323 39.791 31.2079 39.8533 31.7655 39.1377C32.3231 38.4221 31.9515 37.1997 30.9355 36.4074Z" fill="#FFC462"/>
<path d="M32.6429 32.4455C31.8693 31.259 30.612 30.7083 29.8346 31.2154C29.0572 31.7225 29.0542 33.0954 29.8278 34.2819C30.6014 35.4683 31.8587 36.0191 32.636 35.512C33.4134 35.0049 33.4164 33.6319 32.6429 32.4455Z" fill="#FFC462"/>
<path d="M39.131 30.5719C38.2248 30.6135 37.5383 31.6906 37.5976 32.9778C37.6569 34.265 38.4396 35.2748 39.3457 35.2332C40.2518 35.1916 40.9383 34.1145 40.879 32.8273C40.8197 31.5401 40.0371 30.5304 39.131 30.5719Z" fill="#FFC462"/>
<path d="M37.3545 29.0904C36.8359 27.7675 35.7128 26.9705 34.846 27.3103C33.9791 27.6502 33.6968 28.9982 34.2154 30.3211C34.7339 31.6441 35.857 32.4411 36.7239 32.1012C37.5907 31.7614 37.873 30.4134 37.3545 29.0904Z" fill="#FFC462"/>
<path d="M9.67566 29.8983C10.1921 30.1951 10.8551 30.3952 11.4363 30.1024C12.8354 29.3967 12.6202 27.6315 13.3293 26.392C13.9355 25.3353 15.6748 24.4757 15.6488 23.1716C15.6329 22.3998 15.1057 21.8082 14.5095 21.4682C13.6965 21.001 12.6793 21.1786 11.6529 21.7127C11.2386 21.9283 10.2372 21.856 9.3764 21.9889C8.51557 22.1219 7.78089 22.4925 7.47272 23.029C7.04422 23.7724 7.11234 24.516 7.40867 25.1931C7.75602 25.9849 8.38782 26.6867 8.4395 27.2182C8.54924 28.3499 8.72745 29.3537 9.67566 29.8983Z" fill="#FFC462"/>
<path d="M11.4987 17.575C10.7519 16.525 9.54733 16.1002 8.80831 16.6262C8.06928 17.1521 8.07562 18.4297 8.82248 19.4797C9.56935 20.5297 10.7739 20.9545 11.5129 20.4285C12.252 19.9026 12.2456 18.625 11.4987 17.575Z" fill="#FFC462"/>
<path d="M6.75374 18.2836C5.60264 17.4585 4.23137 17.4015 3.69093 18.1562C3.15049 18.9109 3.64554 20.1916 4.79663 21.0166C5.94773 21.8417 7.31897 21.8987 7.85941 21.144C8.39985 20.3892 7.90483 19.1086 6.75374 18.2836Z" fill="#FFC462"/>
<path d="M5.09881 25.9729C3.81591 25.8573 2.71013 26.4963 2.629 27.4C2.54788 28.3038 3.52211 29.1301 4.80502 29.2456C6.08793 29.3612 7.1937 28.7222 7.27483 27.8185C7.35596 26.9147 6.38172 26.0884 5.09881 25.9729Z" fill="#FFC462"/>
<path d="M4.39415 21.7188C3.1015 21.1406 1.74661 21.3589 1.3679 22.2065C0.989189 23.0541 1.73007 24.2099 3.02272 24.7882C4.31537 25.3664 5.67029 25.1481 6.049 24.3005C6.42771 23.4529 5.6868 22.2971 4.39415 21.7188Z" fill="#FFC462"/>
<path d="M111.268 305.291C111.088 305.859 110.736 306.456 110.111 306.634C108.604 307.063 107.566 305.619 106.207 305.19C105.044 304.822 103.183 305.37 102.319 304.393C101.807 303.815 101.796 303.021 102.002 302.368C102.284 301.474 103.153 300.915 104.269 300.612C104.72 300.49 105.408 299.758 106.131 299.273C106.853 298.788 107.645 298.563 108.235 298.748C109.052 299.006 109.508 299.597 109.749 300.296C110.03 301.114 110.041 302.059 110.363 302.484C111.047 303.389 111.596 304.248 111.268 305.291Z" fill="#FFC462"/>
<path d="M102.913 294.944C102.013 295.058 101.415 296.187 101.577 297.465C101.739 298.743 102.6 299.687 103.5 299.573C104.399 299.459 104.998 298.331 104.835 297.052C104.673 295.774 103.812 294.83 102.913 294.944Z" fill="#FFC462"/>
<path d="M107.7 292.594C106.791 292.405 105.821 293.377 105.534 294.763C105.246 296.15 105.749 297.427 106.658 297.616C107.567 297.805 108.537 296.834 108.825 295.447C109.112 294.06 108.609 292.783 107.7 292.594Z" fill="#FFC462"/>
<path d="M114.756 298.68C114.084 298.071 112.837 298.35 111.972 299.304C111.107 300.259 110.95 301.527 111.622 302.136C112.294 302.746 113.54 302.467 114.406 301.512C115.271 300.558 115.427 299.29 114.756 298.68Z" fill="#FFC462"/>
<path d="M112.175 294.017C111.323 293.651 110.178 294.408 109.619 295.709C109.06 297.011 109.298 298.363 110.151 298.73C111.004 299.096 112.148 298.339 112.707 297.037C113.266 295.736 113.028 294.384 112.175 294.017Z" fill="#FFC462"/>
<path d="M94.3203 277.439C94.4778 278.014 94.8091 278.623 95.4251 278.826C96.9145 279.313 98.0064 277.909 99.3817 277.533C100.557 277.211 102.396 277.829 103.297 276.886C103.829 276.328 103.868 275.536 103.689 274.871C103.441 273.966 102.594 273.375 101.49 273.03C101.044 272.891 100.385 272.133 99.6796 271.617C98.9746 271.101 98.1927 270.849 97.5966 271.012C96.7704 271.238 96.2926 271.812 96.0253 272.501C95.7139 273.307 95.6673 274.251 95.3295 274.663C94.6143 275.55 94.0332 276.387 94.3203 277.439Z" fill="#FFC462"/>
<path d="M103.065 267.415C102.171 267.267 101.275 268.177 101.064 269.448C100.854 270.719 101.409 271.87 102.303 272.019C103.198 272.167 104.094 271.257 104.305 269.986C104.515 268.714 103.96 267.564 103.065 267.415Z" fill="#FFC462"/>
<path d="M98.3691 264.893C97.4538 265.047 96.9023 266.304 97.1371 267.701C97.372 269.098 98.3044 270.106 99.2197 269.952C100.135 269.798 100.687 268.541 100.452 267.144C100.217 265.747 99.2844 264.74 98.3691 264.893Z" fill="#FFC462"/>
<path d="M93.8482 271.426C93.0198 270.439 91.7851 270.112 91.0905 270.696C90.396 271.279 90.5045 272.552 91.333 273.539C92.1614 274.526 93.3961 274.853 94.0906 274.269C94.7852 273.686 94.6767 272.413 93.8482 271.426Z" fill="#FFC462"/>
<path d="M96.3392 267.919C95.8299 266.598 94.7151 265.797 93.849 266.13C92.983 266.464 92.6937 267.806 93.203 269.128C93.7122 270.45 94.8271 271.25 95.6931 270.917C96.5591 270.583 96.8484 269.241 96.3392 267.919Z" fill="#FFC462"/>
<path d="M113.622 249.473C113.48 250.052 113.166 250.67 112.554 250.887C111.079 251.411 109.949 250.036 108.564 249.695C107.382 249.403 105.559 250.067 104.634 249.147C104.087 248.603 104.026 247.812 104.19 247.147C104.413 246.237 105.245 245.623 106.34 245.25C106.782 245.099 107.421 244.325 108.112 243.794C108.804 243.264 109.579 242.989 110.179 243.137C111.011 243.342 111.503 243.903 111.788 244.585C112.12 245.384 112.192 246.325 112.54 246.73C113.28 247.589 113.883 248.411 113.622 249.473Z" fill="#FFC462"/>
<path d="M104.624 239.667C103.733 239.838 103.208 241.002 103.451 242.268C103.694 243.533 104.614 244.42 105.504 244.249C106.395 244.078 106.92 242.914 106.677 241.648C106.434 240.383 105.515 239.496 104.624 239.667Z" fill="#FFC462"/>
<path d="M109.258 237.015C108.339 236.884 107.433 237.915 107.234 239.317C107.035 240.72 107.619 241.962 108.538 242.093C109.457 242.223 110.363 241.193 110.562 239.79C110.761 238.388 110.177 237.145 109.258 237.015Z" fill="#FFC462"/>
<path d="M116.306 243.33C115.595 242.768 114.372 243.13 113.574 244.138C112.776 245.147 112.705 246.421 113.415 246.984C114.125 247.546 115.348 247.184 116.147 246.175C116.945 245.167 117.016 243.893 116.306 243.33Z" fill="#FFC462"/>
<path d="M113.816 238.154C112.941 237.843 111.847 238.672 111.372 240.006C110.897 241.34 111.221 242.674 112.096 242.986C112.97 243.298 114.064 242.469 114.539 241.135C115.014 239.8 114.69 238.466 113.816 238.154Z" fill="#FFC462"/>
<path d="M94.9363 222.76C95.1305 223.324 95.4976 223.911 96.127 224.074C97.6448 224.464 98.6448 222.994 99.993 222.531C101.145 222.135 103.02 222.634 103.859 221.636C104.355 221.045 104.346 220.251 104.123 219.603C103.818 218.715 102.936 218.18 101.812 217.905C101.358 217.795 100.651 217.08 99.918 216.613C99.1849 216.147 98.385 215.941 97.8004 216.143C96.9907 216.421 96.5499 217.024 96.3279 217.729C96.0677 218.554 96.0792 219.499 95.7711 219.932C95.1051 220.853 94.5812 221.726 94.9363 222.76Z" fill="#FFC462"/>
<path d="M103.016 212.222C102.114 212.131 101.277 213.097 101.149 214.379C101.02 215.661 101.647 216.774 102.549 216.865C103.452 216.956 104.288 215.99 104.417 214.708C104.546 213.426 103.919 212.313 103.016 212.222Z" fill="#FFC462"/>
<path d="M98.1746 209.963C97.2709 210.175 96.8005 211.464 97.1238 212.843C97.4471 214.222 98.4417 215.169 99.3453 214.957C100.249 214.745 100.719 213.456 100.396 212.076C100.073 210.697 99.0782 209.751 98.1746 209.963Z" fill="#FFC462"/>
<path d="M94.0612 216.802C93.1714 215.87 91.9185 215.622 91.2625 216.249C90.6066 216.875 90.7962 218.139 91.6859 219.071C92.5756 220.003 93.8286 220.25 94.4845 219.624C95.1404 218.997 94.9509 217.734 94.0612 216.802Z" fill="#FFC462"/>
<path d="M96.3216 213.136C95.7291 211.849 94.5654 211.121 93.7224 211.509C92.8795 211.898 92.6764 213.255 93.2689 214.542C93.8615 215.828 95.0252 216.557 95.8681 216.168C96.7111 215.78 96.9141 214.422 96.3216 213.136Z" fill="#FFC462"/>
</g>
<defs>
<clipPath id="clip0_304_3209">
<rect width="459.501" height="65.643" fill="white" transform="translate(133.055 458.823) rotate(-106.832)"/>
</clipPath>
</defs>
</svg>
