<svg width="20" height="20" viewBox="0 0 20 20" fill="none" xmlns="http://www.w3.org/2000/svg">
<g clip-path="url(#clip0)">
<path d="M16.9308 3.74333C15.6558 3.16833 14.2891 2.74333 12.8599 2.50167C12.8472 2.49922 12.834 2.5008 12.8222 2.50617C12.8104 2.51155 12.8006 2.52046 12.7941 2.53167C12.6191 2.83917 12.4241 3.24 12.2874 3.55667C10.7717 3.3302 9.23067 3.3302 7.71492 3.55667C7.5627 3.20572 7.39104 2.86352 7.20075 2.53167C7.1943 2.52032 7.18455 2.51121 7.17278 2.50555C7.16102 2.49989 7.14781 2.49795 7.13492 2.5C5.70659 2.74166 4.33992 3.16667 3.06409 3.7425C3.05311 3.7471 3.04381 3.75495 3.03742 3.765C0.444087 7.5775 -0.266747 11.2958 0.0824199 14.9675C0.0833915 14.9765 0.0861828 14.9852 0.090624 14.9931C0.0950651 15.001 0.101063 15.0078 0.108253 15.0133C1.62191 16.1154 3.3102 16.9548 5.10242 17.4967C5.11491 17.5005 5.12828 17.5005 5.14076 17.4966C5.15325 17.4928 5.16428 17.4852 5.17242 17.475C5.55742 16.9583 5.90075 16.4125 6.19409 15.8392C6.21159 15.8058 6.19492 15.7658 6.15992 15.7525C5.62159 15.5498 5.09999 15.3051 4.59992 15.0208C4.59093 15.0157 4.58336 15.0084 4.57788 14.9996C4.57241 14.9909 4.56919 14.9809 4.56853 14.9705C4.56787 14.9602 4.56978 14.9499 4.5741 14.9405C4.57841 14.9311 4.585 14.9229 4.59325 14.9167C4.69825 14.8392 4.80325 14.7583 4.90325 14.6775C4.91225 14.6702 4.9231 14.6656 4.93457 14.6641C4.94605 14.6627 4.95771 14.6644 4.96825 14.6692C8.24075 16.1392 11.7849 16.1392 15.0191 14.6692C15.0297 14.6641 15.0414 14.6621 15.0531 14.6635C15.0647 14.6648 15.0758 14.6694 15.0849 14.6767C15.1849 14.7583 15.2891 14.8392 15.3949 14.9167C15.4033 14.9228 15.41 14.9308 15.4144 14.9402C15.4189 14.9495 15.4209 14.9598 15.4204 14.9701C15.4199 14.9804 15.4169 14.9904 15.4116 14.9993C15.4062 15.0082 15.3988 15.0156 15.3899 15.0208C14.8916 15.3075 14.3733 15.55 13.8291 15.7517C13.8207 15.7547 13.8131 15.7595 13.8068 15.7657C13.8004 15.7719 13.7954 15.7794 13.7922 15.7877C13.789 15.796 13.7875 15.8048 13.788 15.8137C13.7885 15.8226 13.7908 15.8313 13.7949 15.8392C14.0949 16.4117 14.4383 16.9567 14.8158 17.4742C14.8236 17.4848 14.8345 17.4927 14.8471 17.4969C14.8596 17.5011 14.8731 17.5013 14.8858 17.4975C16.681 16.9572 18.3721 16.1173 19.8874 15.0133C19.8948 15.0082 19.901 15.0015 19.9056 14.9937C19.9102 14.986 19.9131 14.9773 19.9141 14.9683C20.3308 10.7233 19.2158 7.035 16.9566 3.76667C16.951 3.75604 16.9419 3.74776 16.9308 3.74333ZM6.68325 12.7317C5.69825 12.7317 4.88575 11.8408 4.88575 10.7483C4.88575 9.655 5.68242 8.765 6.68325 8.765C7.69159 8.765 8.49659 9.6625 8.48075 10.7483C8.48075 11.8417 7.68409 12.7317 6.68325 12.7317V12.7317ZM13.3291 12.7317C12.3433 12.7317 11.5316 11.8408 11.5316 10.7483C11.5316 9.655 12.3274 8.765 13.3291 8.765C14.3374 8.765 15.1424 9.6625 15.1266 10.7483C15.1266 11.8417 14.3383 12.7317 13.3291 12.7317V12.7317Z" fill="white"/>
</g>
<defs>
<clipPath id="clip0">
<rect width="20" height="20" fill="white"/>
</clipPath>
</defs>
</svg>
