<svg width="24" height="20" viewBox="0 0 24 20" fill="none" xmlns="http://www.w3.org/2000/svg">
<path d="M23.9991 2.43536C23.1161 2.83507 22.1672 3.10522 21.1713 3.22675C22.1879 2.60474 22.9685 1.61976 23.3361 0.446173C22.3696 1.03161 21.3123 1.44409 20.2097 1.66579C19.3116 0.689044 18.0321 0.0786133 16.616 0.0786133C13.8969 0.0786133 11.6924 2.32895 11.6924 5.10445C11.6924 5.49842 11.736 5.88196 11.8199 6.2499C7.72812 6.04024 4.10035 4.03938 1.67199 0.998613C1.24828 1.74091 1.00549 2.60435 1.00549 3.52531C1.00549 5.26904 1.87475 6.80732 3.19575 7.70866C2.4139 7.68366 1.64926 7.4681 0.965653 7.07995C0.965372 7.10101 0.965372 7.12206 0.965372 7.14321C0.965372 9.57833 2.66246 11.6097 4.91467 12.0714C4.18967 12.2727 3.42919 12.3022 2.69133 12.1576C3.3178 14.1543 5.13609 15.6073 7.29044 15.648C5.60545 16.9959 3.4825 17.7995 1.17591 17.7995C0.778452 17.7995 0.386616 17.7756 0.00143433 17.7292C2.18025 19.1553 4.76816 19.9873 7.54851 19.9873C16.6045 19.9873 21.5566 12.3289 21.5566 5.68732C21.5566 5.46933 21.5519 5.25258 21.5423 5.03708C22.5062 4.32578 23.3381 3.44475 23.9991 2.43536" fill="white"/>
</svg>
